<?xml version="1.0" encoding="utf-8"?>
<!-- Generator: Adobe Illustrator 17.1.0, SVG Export Plug-In . SVG Version: 6.00 Build 0)  -->
<!DOCTYPE svg PUBLIC "-//W3C//DTD SVG 1.1//EN" "http://www.w3.org/Graphics/SVG/1.1/DTD/svg11.dtd">
<svg version="1.1" id="Layer_1" xmlns="http://www.w3.org/2000/svg" xmlns:xlink="http://www.w3.org/1999/xlink" x="0px" y="0px"
	 viewBox="0 0 1093.096 498" enable-background="new 0 0 1093.096 498" xml:space="preserve">
<g>
	<rect x="709.311" y="95.718" fill="#414042" width="330.395" height="348.9"/>
</g>
<g>
	<rect x="380.096" y="95.718" fill="#6D6E71" width="330.395" height="349.209"/>
</g>
<g>
	<rect x="50.127" y="95.718" fill="#A7A9AC" width="330.395" height="349.61"/>
</g>
<g>
	<path fill="#6D6E71" d="M413.869,63.809c-0.721-0.84-1.561-1.49-2.521-1.95c-0.96-0.459-1.96-0.69-3-0.69
		c-1.08,0-2.05,0.342-2.91,1.022c-0.86,0.682-1.29,1.804-1.29,3.365c0,1.322,0.44,2.354,1.32,3.095c0.88,0.742,2.18,1.554,3.9,2.435
		c0.965,0.481,1.982,1.052,3.05,1.713c1.066,0.661,2.043,1.472,2.93,2.434c0.886,0.962,1.62,2.113,2.204,3.456
		s0.876,2.936,0.876,4.778c0,2.284-0.362,4.298-1.088,6.04c-0.725,1.743-1.7,3.186-2.929,4.327
		c-1.228,1.142-2.646,2.003-4.252,2.585c-1.608,0.58-3.272,0.87-4.991,0.87c-2.561,0-4.891-0.479-6.99-1.439s-3.79-2.079-5.07-3.36
		l4.92-7.2c0.92,0.96,1.98,1.731,3.181,2.311c1.2,0.58,2.42,0.87,3.66,0.87c1.159,0,2.139-0.38,2.939-1.141
		c0.8-0.759,1.2-1.819,1.2-3.18c0-1.399-0.48-2.51-1.44-3.33c-0.96-0.819-2.36-1.689-4.199-2.61c-1.161-0.56-2.25-1.179-3.271-1.859
		c-1.02-0.68-1.92-1.5-2.7-2.46c-0.779-0.96-1.39-2.08-1.83-3.36c-0.44-1.279-0.659-2.799-0.659-4.56c0-2.36,0.39-4.39,1.17-6.09
		c0.779-1.7,1.8-3.091,3.06-4.171c1.26-1.079,2.66-1.879,4.2-2.399c1.539-0.52,3.09-0.78,4.65-0.78c2.319,0,4.399,0.378,6.239,1.133
		s3.38,1.788,4.62,3.099L413.869,63.809z"/>
	<path fill="#6D6E71" d="M443.389,96.149v-17.76h-9.899v17.76h-9.54v-42.48h9.54v16.08h9.899v-16.08h9.54v42.48H443.389z"/>
	<path fill="#6D6E71" d="M479.329,96.149l-1.74-7.74h-9.54l-1.74,7.74h-9.6l10.32-42.48h12.06l10.26,42.48H479.329z M472.969,62.909
		h-0.24l-3.6,18.061h7.26L472.969,62.909z"/>
	<path fill="#6D6E71" d="M510.8,96.149l-5.68-16.92h-2.812v16.92h-9.239v-42.48h13.589c4.11,0,7.303,1.071,9.578,3.211
		c2.274,2.14,3.413,5.33,3.413,9.569c0,1.561-0.181,2.961-0.538,4.2c-0.359,1.24-0.828,2.301-1.405,3.18
		c-0.579,0.881-1.227,1.601-1.944,2.16c-0.718,0.561-1.415,0.96-2.092,1.2l7.239,18.96H510.8z M510.229,66.989
		c0-1.08-0.15-1.959-0.45-2.64c-0.3-0.68-0.69-1.22-1.17-1.62c-0.48-0.399-1.011-0.67-1.59-0.811c-0.581-0.14-1.15-0.21-1.711-0.21
		h-3v10.74h2.82c1.359,0,2.55-0.429,3.57-1.29C509.719,70.299,510.229,68.909,510.229,66.989z"/>
	<path fill="#6D6E71" d="M525.528,96.149v-42.48h20.52v8.461h-11.34v8.34h10.44v7.92h-10.44v9.12h12.06v8.64H525.528z"/>
</g>
<g>
	<circle fill="#233066" cx="215.518" cy="269.548" r="119.593"/>
	<path fill="#FFFFFF" d="M279.645,278.433c10.68-10.68,13.089-26.465,7.3-39.486l-25.9,25.901l-17.974-17.975l25.902-25.9
		c-13.023-5.789-28.808-3.38-39.488,7.299c-10.322,10.323-12.941,25.424-7.876,38.182l-60.324,60.325
		c-4.04,4.039-2.871,11.759,2.614,17.242c5.482,5.483,13.202,6.652,17.242,2.613l60.322-60.324
		C254.223,291.375,269.323,288.756,279.645,278.433z M172.218,335.699c-2.308-2.308-2.308-6.051,0-8.359
		c2.31-2.309,6.052-2.309,8.362,0c2.308,2.308,2.308,6.051,0,8.359C178.27,338.008,174.528,338.008,172.218,335.699z"/>
	<g>
		<path fill="#FFFFFF" d="M194.083,236.113l-3.461-7.744l-4.846,2.165c-1.684-2.384-3.796-4.354-6.183-5.852l1.896-4.957
			l-7.926-3.028l-1.894,4.957c-2.776-0.477-5.664-0.419-8.509,0.232l-2.165-4.844l-7.746,3.462l2.165,4.844
			c-2.383,1.686-4.353,3.798-5.85,6.184l-4.959-1.895l-3.029,7.924l4.957,1.894c-0.476,2.778-0.418,5.666,0.235,8.51l-4.846,2.165
			l3.461,7.744l4.846-2.165c1.684,2.384,3.796,4.354,6.183,5.851l-1.895,4.958l7.926,3.028l1.895-4.956
			c2.776,0.477,5.663,0.418,8.508-0.234l2.165,4.846l7.746-3.462l-2.165-4.846c2.383-1.685,4.354-3.796,5.85-6.182l4.957,1.896
			l3.031-7.926l-4.958-1.895c0.477-2.777,0.418-5.665-0.235-8.509L194.083,236.113z M172.998,254.303
			c-6.174,2.759-13.418-0.009-16.178-6.184c-2.76-6.175,0.01-13.419,6.185-16.178c6.174-2.759,13.418,0.009,16.178,6.185
			C181.943,244.301,179.173,251.544,172.998,254.303z"/>
		<path fill="#FFFFFF" d="M206.365,182.605l-5.313-5.278l-3.302,3.322c-2.145-1.426-4.51-2.378-6.952-2.853l-0.016-4.686
			l-7.49,0.024l0.016,4.685c-2.439,0.49-4.799,1.456-6.934,2.897l-3.324-3.302l-5.279,5.313l3.323,3.303
			c-1.427,2.145-2.378,4.509-2.853,6.952l-4.686,0.015l0.024,7.489l4.686-0.015c0.49,2.439,1.457,4.797,2.898,6.933l-3.302,3.324
			l5.313,5.278l3.302-3.322c2.145,1.428,4.51,2.378,6.952,2.853l0.015,4.686l7.49-0.025l-0.015-4.685
			c2.439-0.49,4.798-1.456,6.934-2.897l3.324,3.302l5.279-5.313l-3.324-3.302c1.428-2.145,2.379-4.51,2.854-6.953l4.685-0.014
			l-0.023-7.491l-4.686,0.016c-0.49-2.439-1.457-4.798-2.897-6.935L206.365,182.605z M194.782,204.288
			c-4.208,4.235-11.053,4.256-15.289,0.048c-4.236-4.208-4.258-11.055-0.048-15.29c4.208-4.235,11.053-4.257,15.289-0.048
			C198.97,193.207,198.991,200.052,194.782,204.288z"/>
	</g>
	<path fill="#FFFFFF" d="M212.724,341.674l-8.11,16.553c-0.393,0.801,0.238,1.915,1.408,2.488c1.171,0.574,2.437,0.39,2.83-0.411
		l3.06-6.246l24.797,12.15l5.323-0.043l-3.333-4.019l-24.797-12.15l3.06-6.246c0.393-0.801-0.238-1.915-1.409-2.489
		C214.383,340.689,213.117,340.873,212.724,341.674z"/>
	<polygon fill="#FFFFFF" points="281.875,331.922 287.436,329.926 278.736,305.696 273.176,307.692 272.651,317.998 
		264.308,320.993 263.852,319.721 262.303,320.277 262.76,321.549 257.765,323.342 257.347,322.179 255.798,322.735 
		256.216,323.899 251.222,325.691 250.805,324.528 249.255,325.085 249.672,326.248 244.678,328.041 244.261,326.878 
		242.713,327.433 243.13,328.597 236.469,330.988 231.364,336.38 238.733,337.294 242.122,336.078 242.539,337.239 244.088,336.683 
		243.671,335.521 248.666,333.728 249.083,334.889 250.632,334.333 250.215,333.172 255.209,331.379 255.626,332.54 
		257.174,331.984 256.757,330.823 261.752,329.03 262.13,330.082 263.678,329.526 263.3,328.474 274.915,324.304 	"/>
</g>
<g>
	<g>
		<rect x="454.84" y="260.138" fill="#233066" width="77.838" height="102.04"/>
		<circle fill="#233066" cx="493.759" cy="221.546" r="38.592"/>
	</g>
	<g>
		
			<rect x="621.27" y="193.344" transform="matrix(0.7071 -0.7071 0.7071 0.7071 42.674 511.4777)" fill="#233066" width="34.951" height="21.765"/>
		
			<rect x="644.347" y="224.715" transform="matrix(0.9205 -0.3907 0.3907 0.9205 -39.4436 277.3233)" fill="#233066" width="34.951" height="21.765"/>
		<rect x="652.562" y="261.813" fill="#233066" width="34.951" height="21.765"/>
		
			<rect x="644.347" y="298.651" transform="matrix(0.9563 0.2924 -0.2924 0.9563 119.4174 -179.9729)" fill="#233066" width="34.951" height="21.765"/>
		
			<rect x="621.27" y="330.022" transform="matrix(0.7071 0.7071 -0.7071 0.7071 428.14 -351.8125)" fill="#233066" width="34.951" height="21.765"/>
	</g>
	<polygon fill="#FFFFFF" points="567.619,272.595 617.984,272.595 617.907,275.663 624.248,271.739 617.984,268.142 
		617.984,270.916 567.593,270.916 	"/>
	<polygon fill="#FFFFFF" points="567.593,285.613 603.207,321.227 600.983,323.341 608.241,325.05 606.356,318.078 604.395,320.039 
		568.763,284.407 	"/>
	<polygon fill="#FFFFFF" points="568.799,259.4 604.413,223.786 606.527,226.01 608.236,218.752 601.264,220.637 603.225,222.598 
		567.593,258.23 	"/>
</g>
<g>
	<path fill="#A7A9AC" d="M85.397,96.403c-1.881,1.1-4.281,1.65-7.2,1.65c-2.48,0-4.73-0.55-6.75-1.65
		c-2.021-1.1-3.75-2.64-5.19-4.62c-1.439-1.98-2.56-4.34-3.359-7.08c-0.801-2.739-1.2-5.75-1.2-9.03c0-3.319,0.399-6.36,1.2-9.12
		c0.8-2.76,1.92-5.12,3.359-7.08c1.44-1.959,3.17-3.48,5.19-4.56c2.02-1.08,4.27-1.62,6.75-1.62c2.84,0,5.21,0.51,7.11,1.53
		c1.899,1.02,3.429,2.29,4.59,3.81l-5.16,6.96c-0.72-0.96-1.53-1.72-2.43-2.28c-0.9-0.56-2.031-0.84-3.391-0.84
		c-1.28,0-2.391,0.34-3.33,1.02c-0.94,0.681-1.739,1.61-2.399,2.79c-0.66,1.18-1.15,2.58-1.471,4.2
		c-0.32,1.62-0.479,3.351-0.479,5.19c0,1.84,0.159,3.561,0.479,5.16c0.32,1.601,0.811,3,1.471,4.2c0.66,1.2,1.47,2.14,2.43,2.82
		c0.96,0.681,2.079,1.02,3.36,1.02c1.279,0,2.399-0.32,3.359-0.96c0.96-0.639,1.72-1.4,2.28-2.28l5.34,6.66
		C88.797,93.934,87.277,95.303,85.397,96.403z"/>
	<path fill="#A7A9AC" d="M111.888,96.913l-5.68-16.92h-2.812v16.92h-9.239v-42.48h13.589c4.11,0,7.303,1.071,9.578,3.21
		c2.274,2.14,3.413,5.331,3.413,9.57c0,1.56-0.181,2.961-0.538,4.2c-0.359,1.24-0.828,2.301-1.405,3.18
		c-0.579,0.88-1.227,1.6-1.944,2.16c-0.718,0.561-1.415,0.96-2.092,1.2l7.239,18.96H111.888z M111.317,67.753
		c0-1.08-0.15-1.959-0.45-2.64c-0.3-0.68-0.69-1.22-1.17-1.62c-0.48-0.399-1.011-0.669-1.59-0.81c-0.581-0.14-1.15-0.21-1.711-0.21
		h-3v10.74h2.82c1.359,0,2.55-0.429,3.57-1.29C110.807,71.063,111.317,69.673,111.317,67.753z"/>
	<path fill="#A7A9AC" d="M126.616,96.913v-42.48h20.52v8.46h-11.34v8.34h10.44v7.92h-10.44v9.12h12.06v8.64H126.616z"/>
	<path fill="#A7A9AC" d="M172.336,96.913l-1.74-7.74h-9.54l-1.74,7.74h-9.6l10.32-42.48h12.06l10.26,42.48H172.336z M165.976,63.673
		h-0.24l-3.6,18.06h7.26L165.976,63.673z"/>
	<path fill="#A7A9AC" d="M198.377,62.593v34.32h-9.42v-34.32h-7.8v-8.16h25.02v8.16H198.377z"/>
	<path fill="#A7A9AC" d="M209.896,96.913v-42.48h20.52v8.46h-11.34v8.34h10.44v7.92h-10.44v9.12h12.06v8.64H209.896z"/>
</g>
<g>
	<path fill="#414042" d="M745.235,96.15l-1.74-7.74h-9.54l-1.74,7.74h-9.6l10.32-42.48h12.06l10.26,42.48H745.235z M738.875,62.91
		h-0.24l-3.6,18.06h7.26L738.875,62.91z"/>
	<path fill="#414042" d="M788.556,75.03c0,3.201-0.351,6.101-1.051,8.7c-0.7,2.601-1.77,4.82-3.21,6.66
		c-1.439,1.84-3.27,3.26-5.489,4.26c-2.221,1-4.851,1.5-7.891,1.5h-11.939V53.67h11.939c3.04,0,5.67,0.5,7.891,1.5
		c2.22,1,4.05,2.43,5.489,4.29c1.44,1.86,2.51,4.101,3.21,6.72C788.205,68.8,788.556,71.75,788.556,75.03z M778.896,75.03
		c0-4.28-0.73-7.509-2.19-9.69c-1.46-2.18-3.351-3.27-5.67-3.27h-2.34v25.68h2.34c2.319,0,4.21-1.089,5.67-3.27
		C778.165,82.3,778.896,79.15,778.896,75.03z"/>
	<path fill="#414042" d="M811.775,96.15l-1.74-7.74h-9.54l-1.74,7.74h-9.6l10.32-42.48h12.06l10.26,42.48H811.775z M805.415,62.91
		h-0.24l-3.6,18.06h7.26L805.415,62.91z"/>
	<path fill="#414042" d="M851.735,66.99c0,2.361-0.36,4.401-1.08,6.12c-0.72,1.72-1.68,3.141-2.88,4.26
		c-1.2,1.12-2.561,1.95-4.08,2.49c-1.521,0.54-3.06,0.81-4.62,0.81h-4.14v15.48h-9.42V53.67h13.2c1.52,0,3.049,0.22,4.59,0.66
		c1.539,0.44,2.939,1.17,4.199,2.19c1.261,1.02,2.28,2.391,3.061,4.11C851.346,62.35,851.735,64.47,851.735,66.99z M842.735,67.17
		c0-1.92-0.46-3.3-1.38-4.14c-0.921-0.84-2.04-1.26-3.36-1.26h-3.06v11.1h3.06c1.32,0,2.439-0.49,3.36-1.47
		C842.275,70.42,842.735,69.01,842.735,67.17z"/>
	<path fill="#414042" d="M871.855,61.83v34.32h-9.42V61.83h-7.8v-8.16h25.02v8.16H871.855z"/>
</g>
<g>
	<polygon fill="#A7A9AC" points="380.096,162.714 380.096,378.333 421.861,270.523 	"/>
</g>
<g>
	<polygon fill="#414042" points="863.091,162.359 863.091,377.978 904.856,270.169 	"/>
</g>
<g>
	<g>
		<g>
			<rect x="873.55" y="285.659" fill="#233066" width="38.847" height="50.926"/>
			<circle fill="#233066" cx="892.973" cy="266.399" r="19.26"/>
		</g>
		<rect x="884.489" y="205.171" fill="#233066" width="16.968" height="27.248"/>
	</g>
	<g>
		<rect x="935.466" y="205.171" fill="#F47641" width="16.968" height="27.248"/>
		<g>
			<rect x="924.526" y="285.659" fill="#F47641" width="38.847" height="50.926"/>
			<circle fill="#F47641" cx="943.95" cy="266.399" r="19.26"/>
		</g>
	</g>
	<g>
		<rect x="986.442" y="205.171" fill="#F4D019" width="16.968" height="27.248"/>
		<g>
			<rect x="975.503" y="285.659" fill="#F4D019" width="38.847" height="50.926"/>
			<circle fill="#F4D019" cx="994.926" cy="266.399" r="19.26"/>
		</g>
	</g>
	<g>
		<rect x="833.513" y="205.171" fill="#77AF42" width="16.968" height="27.248"/>
		<g>
			<rect x="822.573" y="285.659" fill="#77AF42" width="38.847" height="50.926"/>
			<circle fill="#77AF42" cx="841.997" cy="266.399" r="19.26"/>
		</g>
	</g>
	<g>
		<rect x="782.536" y="205.171" fill="#FFFFFF" width="16.968" height="27.248"/>
		<g>
			<rect x="771.597" y="285.659" fill="#FFFFFF" width="38.847" height="50.926"/>
			<circle fill="#FFFFFF" cx="791.02" cy="266.399" r="19.26"/>
		</g>
	</g>
</g>
<g>
	<polygon fill="#6D6E71" points="709.311,162.714 709.311,378.333 751.075,270.523 	"/>
</g>
</svg>

