<?xml version="1.0" encoding="utf-8"?>
<!-- Generator: Adobe Illustrator 16.0.3, SVG Export Plug-In . SVG Version: 6.00 Build 0)  -->
<!DOCTYPE svg PUBLIC "-//W3C//DTD SVG 1.1//EN" "http://www.w3.org/Graphics/SVG/1.1/DTD/svg11.dtd">
<svg version="1.1" id="Layer_1" xmlns="http://www.w3.org/2000/svg" xmlns:xlink="http://www.w3.org/1999/xlink" x="0px" y="0px"
	 width="595.281px" height="280.629px" viewBox="0 0 595.281 280.629" enable-background="new 0 0 595.281 280.629"
	 xml:space="preserve">
<g>
	<rect x="386.271" y="55.831" fill="#414042" width="179.928" height="190.003"/>
</g>
<g>
	<rect x="206.995" y="55.831" fill="#6D6E71" width="179.928" height="190.167"/>
</g>
<g>
	<rect x="27.284" y="55.831" fill="#A7A9AC" width="179.929" height="190.384"/>
</g>
<g>
	<circle fill="#233066" cx="117.357" cy="150.479" r="65.131"/>
	<path fill="#FFFFFF" d="M152.265,155.327c5.827-5.828,7.134-14.432,3.975-21.512l-14.104,14.105l-9.802-9.803l14.159-14.051
		c-7.08-3.159-15.684-1.852-21.511,3.975c-5.609,5.609-7.025,13.833-4.302,20.804l-32.838,32.838
		c-2.178,2.178-1.58,6.426,1.416,9.365c2.995,2.996,7.188,3.648,9.367,1.416l32.838-32.838
		C138.432,162.405,146.655,160.989,152.265,155.327z M93.777,186.53c-1.253-1.252-1.253-3.322,0-4.574
		c1.252-1.252,3.322-1.252,4.574,0s1.252,3.322,0,4.574C97.099,187.784,95.029,187.784,93.777,186.53z"/>
	<g>
		<path fill="#FFFFFF" d="M105.703,132.29l-1.906-4.192l-2.614,1.198c-0.926-1.307-2.069-2.396-3.376-3.213l1.035-2.723
			l-4.302-1.634l-1.035,2.723c-1.525-0.272-3.104-0.218-4.629,0.109l-1.198-2.668l-4.193,1.906l1.198,2.614
			c-1.307,0.926-2.396,2.07-3.213,3.376l-2.723-1.035l-1.634,4.301l2.723,1.035c-0.272,1.525-0.218,3.104,0.109,4.629l-2.614,1.199
			l1.906,4.193l2.614-1.199c0.926,1.309,2.069,2.396,3.376,3.213l-1.035,2.725l4.302,1.635l1.035-2.725
			c1.525,0.271,3.104,0.219,4.629-0.107l1.198,2.611l4.193-1.904l-1.198-2.613c1.307-0.926,2.396-2.068,3.213-3.375l2.723,1.033
			l1.634-4.302l-2.723-1.035c0.272-1.524,0.218-3.104-0.109-4.629L105.703,132.29z M94.212,142.202
			c-3.376,1.525-7.297,0-8.822-3.377c-1.525-3.375,0-7.297,3.376-8.822c3.376-1.524,7.297,0,8.822,3.376
			C99.059,136.754,97.589,140.676,94.212,142.202z"/>
		<path fill="#FFFFFF" d="M112.401,103.155l-2.886-2.886l-1.797,1.797c-1.144-0.762-2.451-1.307-3.812-1.579v-2.56h-4.084v2.56
			c-1.307,0.272-2.614,0.817-3.757,1.579l-1.797-1.797l-2.886,2.886l1.797,1.797c-0.763,1.144-1.307,2.45-1.58,3.812H89.04v4.084
			h2.559c0.272,1.307,0.817,2.614,1.58,3.758l-1.797,1.797l2.886,2.886l1.797-1.797c1.144,0.763,2.451,1.307,3.812,1.579v2.56h4.084
			v-2.56c1.307-0.272,2.614-0.816,3.757-1.579l1.797,1.797l2.886-2.886l-1.797-1.797c0.763-1.144,1.307-2.451,1.58-3.812h2.56
			v-4.084h-2.56c-0.272-1.307-0.817-2.614-1.58-3.757L112.401,103.155z M106.084,114.972c-2.287,2.287-6.044,2.342-8.332,0
			c-2.287-2.287-2.342-6.045,0-8.332c2.288-2.287,6.045-2.342,8.332,0C108.372,108.982,108.372,112.685,106.084,114.972z"/>
	</g>
	<path fill="#FFFFFF" d="M115.832,189.797l-4.411,9.039c-0.218,0.438,0.109,1.035,0.763,1.363c0.653,0.326,1.307,0.217,1.525-0.219
		l1.688-3.377l13.505,6.59h2.887l-1.797-2.178l-13.505-6.699l1.688-3.377c0.218-0.438-0.109-1.033-0.762-1.361
		C116.758,189.252,116.05,189.362,115.832,189.797z"/>
	<polygon fill="#FFFFFF" points="153.517,184.459 156.512,183.372 151.774,170.192 148.779,171.282 148.507,176.891 
		143.933,178.526 143.715,177.817 142.843,178.143 143.116,178.797 140.393,179.778 140.121,179.178 139.304,179.452 
		139.521,180.104 136.798,181.084 136.581,180.43 135.764,180.756 135.981,181.356 133.259,182.336 133.041,181.739 132.169,182.01 
		132.387,182.665 128.793,183.971 126.016,186.911 129.991,187.401 131.843,186.749 132.061,187.346 132.932,187.075 
		132.714,186.42 135.437,185.442 135.655,186.094 136.472,185.768 136.254,185.168 138.977,184.188 139.195,184.788 
		140.066,184.516 139.848,183.862 142.571,182.881 142.734,183.481 143.606,183.155 143.388,182.61 149.705,180.323 	"/>
</g>
<g>
	<g>
		<rect x="247.675" y="145.36" fill="#233066" width="42.369" height="55.547"/>
		<circle fill="#233066" cx="268.914" cy="124.339" r="21.021"/>
	</g>
	<g>
		
			<rect x="338.351" y="108.968" transform="matrix(-0.7071 0.7071 -0.7071 -0.7071 675.1227 -49.8307)" fill="#233066" width="19.061" height="11.872"/>
		
			<rect x="350.864" y="126.079" transform="matrix(-0.9205 0.3907 -0.3907 -0.9205 743.7213 112.7287)" fill="#233066" width="19.06" height="11.872"/>
		<rect x="355.392" y="146.286" fill="#233066" width="19.063" height="11.871"/>
		
			<rect x="354.531" y="162.749" transform="matrix(-0.2924 0.9563 -0.9563 -0.2924 630.6323 -122.0488)" fill="#233066" width="11.875" height="19.06"/>
		
			<rect x="341.949" y="179.818" transform="matrix(-0.7071 0.7071 -0.7071 -0.7071 727.7666 77.2455)" fill="#233066" width="11.872" height="19.06"/>
	</g>
	<polygon fill="#FFFFFF" points="309.103,152.167 336.55,152.167 336.496,153.856 339.927,151.676 336.55,149.715 336.55,151.241 
		309.103,151.241 	"/>
	<polygon fill="#FFFFFF" points="309.103,159.247 328.492,178.633 327.292,179.778 331.212,180.704 330.234,176.946 
		329.144,177.981 309.757,158.592 	"/>
	<polygon fill="#FFFFFF" points="309.757,144.979 329.144,125.591 330.289,126.79 331.212,122.869 327.457,123.849 328.492,124.938 
		309.103,144.325 	"/>
</g>
<g>
	<polygon fill="#A7A9AC" points="206.995,92.318 206.995,209.729 229.758,151.024 	"/>
</g>
<g>
	<polygon fill="#414042" points="470.027,92.154 470.027,209.567 492.791,150.86 	"/>
</g>
<g>
	<g>
		<g>
			<rect x="475.691" y="159.301" fill="#233066" width="21.129" height="27.719"/>
			<circle fill="#233066" cx="486.31" cy="148.792" r="10.51"/>
		</g>
		<rect x="481.681" y="115.462" fill="#233066" width="9.26" height="14.813"/>
	</g>
	<g>
		<rect x="509.455" y="115.462" fill="#F47641" width="9.258" height="14.813"/>
		<g>
			<rect x="503.464" y="159.301" fill="#F47641" width="21.129" height="27.719"/>
			<circle fill="#F47641" cx="514.083" cy="148.792" r="10.51"/>
		</g>
	</g>
	<g>
		<rect x="537.173" y="115.462" fill="#F4D019" width="9.258" height="14.813"/>
		<g>
			<rect x="531.238" y="159.301" fill="#F4D019" width="21.129" height="27.719"/>
			<circle fill="#F4D019" cx="541.802" cy="148.792" r="10.51"/>
		</g>
	</g>
	<g>
		<rect x="453.908" y="115.462" fill="#77AF42" width="9.258" height="14.813"/>
		<g>
			<rect x="447.972" y="159.301" fill="#77AF42" width="21.129" height="27.719"/>
			<circle fill="#77AF42" cx="458.537" cy="148.792" r="10.51"/>
		</g>
	</g>
	<g>
		<rect x="426.134" y="115.462" fill="#FFFFFF" width="9.258" height="14.813"/>
		<g>
			<rect x="420.199" y="159.301" fill="#FFFFFF" width="21.129" height="27.719"/>
			<circle fill="#FFFFFF" cx="430.763" cy="148.792" r="10.51"/>
		</g>
	</g>
</g>
<g>
	<polygon fill="#6D6E71" points="386.271,92.318 386.271,209.729 409.035,151.024 	"/>
</g>
<g>
	<path fill="#A7A9AC" d="M41.54,38.834h-4.92v14.269h-4.056V38.834h-4.92v-3.216H41.54V38.834z"/>
	<path fill="#A7A9AC" d="M67.412,35.619l-5.4,17.484H58.34l-3.288-10.836c-0.064-0.168-0.124-0.354-0.18-0.559
		c-0.056-0.204-0.112-0.418-0.168-0.642c-0.056,0.224-0.112,0.438-0.168,0.642c-0.056,0.204-0.116,0.391-0.18,0.559L51.02,53.103
		h-3.672l-5.4-17.484h3.408c0.352,0,0.646,0.08,0.882,0.24c0.236,0.16,0.39,0.372,0.462,0.636l2.4,9.12
		c0.072,0.288,0.144,0.603,0.216,0.942c0.072,0.339,0.144,0.693,0.216,1.062c0.144-0.752,0.32-1.42,0.528-2.004l2.832-9.12
		c0.072-0.224,0.226-0.426,0.462-0.605c0.236-0.181,0.522-0.271,0.858-0.271h1.2c0.352,0,0.636,0.082,0.852,0.246
		c0.216,0.164,0.38,0.374,0.492,0.63l2.808,9.12c0.208,0.561,0.384,1.196,0.528,1.908c0.064-0.36,0.13-0.698,0.198-1.015
		c0.068-0.315,0.138-0.613,0.21-0.894l2.4-9.12c0.064-0.231,0.216-0.436,0.456-0.612c0.24-0.176,0.528-0.264,0.864-0.264
		L67.412,35.619L67.412,35.619z"/>
	<path fill="#A7A9AC" d="M85.868,44.355c0,1.264-0.218,2.439-0.654,3.527c-0.437,1.089-1.05,2.034-1.842,2.839
		c-0.792,0.804-1.746,1.434-2.862,1.89c-1.116,0.456-2.354,0.684-3.714,0.684s-2.6-0.228-3.72-0.684
		c-1.12-0.456-2.078-1.086-2.874-1.89c-0.796-0.805-1.412-1.75-1.848-2.839c-0.436-1.088-0.654-2.264-0.654-3.527
		s0.218-2.44,0.654-3.528s1.052-2.032,1.848-2.832c0.796-0.8,1.754-1.428,2.874-1.884c1.12-0.456,2.36-0.684,3.72-0.684
		s2.598,0.229,3.714,0.689c1.116,0.46,2.07,1.09,2.862,1.89c0.792,0.801,1.406,1.744,1.842,2.832
		C85.649,41.927,85.868,43.099,85.868,44.355z M81.716,44.355c0-0.864-0.112-1.643-0.336-2.334
		c-0.224-0.692-0.546-1.278-0.966-1.758s-0.934-0.849-1.542-1.104c-0.608-0.255-1.3-0.384-2.076-0.384
		c-0.784,0-1.482,0.128-2.094,0.384c-0.612,0.256-1.128,0.624-1.548,1.104c-0.42,0.479-0.742,1.065-0.966,1.758
		c-0.224,0.691-0.336,1.47-0.336,2.334c0,0.872,0.112,1.654,0.336,2.346c0.224,0.692,0.546,1.278,0.966,1.758
		c0.42,0.48,0.936,0.847,1.548,1.099c0.612,0.252,1.31,0.378,2.094,0.378c0.776,0,1.468-0.126,2.076-0.378s1.122-0.618,1.542-1.099
		c0.42-0.479,0.742-1.065,0.966-1.758C81.604,46.009,81.716,45.227,81.716,44.355z"/>
	<path fill="#A7A9AC" d="M102.56,53.103h-3.672c-0.68,0-1.168-0.256-1.464-0.769l-2.904-5.076c-0.136-0.216-0.288-0.373-0.456-0.474
		c-0.168-0.1-0.408-0.149-0.72-0.149h-1.032v6.468h-4.056V35.619h5.688c1.264,0,2.342,0.13,3.234,0.39
		c0.892,0.261,1.62,0.623,2.184,1.087c0.564,0.464,0.974,1.012,1.23,1.644c0.256,0.632,0.384,1.32,0.384,2.064
		c0,0.567-0.076,1.104-0.228,1.607c-0.152,0.504-0.376,0.971-0.672,1.398c-0.296,0.428-0.662,0.81-1.098,1.146
		s-0.938,0.612-1.506,0.828c0.264,0.136,0.512,0.306,0.744,0.51c0.232,0.204,0.44,0.446,0.624,0.727L102.56,53.103z M93.943,43.838
		c0.552,0,1.022-0.069,1.41-0.21c0.388-0.14,0.706-0.334,0.954-0.582c0.248-0.247,0.428-0.537,0.54-0.869
		c0.112-0.332,0.168-0.69,0.168-1.074c0-0.769-0.25-1.368-0.75-1.8c-0.5-0.433-1.274-0.648-2.322-0.648h-1.632v5.184L93.943,43.838
		L93.943,43.838z"/>
	<path fill="#A7A9AC" d="M116.431,37.083c0,0.208-0.034,0.412-0.102,0.612c-0.068,0.2-0.162,0.388-0.282,0.563l-8.208,11.725h8.328
		v3.12h-13.488v-1.561c0-0.184,0.032-0.365,0.096-0.546c0.064-0.18,0.152-0.346,0.264-0.498l8.232-11.76h-7.92v-3.12h13.08V37.083
		L116.431,37.083z"/>
	<path fill="#A7A9AC" d="M127.027,46.455v6.648h-4.056v-6.648l-6.336-10.836h3.576c0.352,0,0.63,0.082,0.834,0.246
		c0.204,0.164,0.374,0.374,0.51,0.63l2.472,5.088c0.208,0.4,0.396,0.774,0.564,1.122c0.168,0.349,0.316,0.69,0.444,1.026
		c0.12-0.344,0.258-0.69,0.414-1.038c0.156-0.348,0.337-0.718,0.546-1.11l2.448-5.088c0.056-0.104,0.124-0.208,0.204-0.312
		s0.174-0.198,0.282-0.282c0.108-0.084,0.232-0.152,0.372-0.204c0.14-0.052,0.294-0.078,0.462-0.078h3.6L127.027,46.455z"/>
	<path fill="#A7A9AC" d="M145.399,48.579c0.096,0,0.192,0.019,0.288,0.054c0.096,0.036,0.188,0.099,0.276,0.187l1.608,1.692
		c-0.704,0.92-1.586,1.613-2.646,2.082c-1.061,0.468-2.314,0.701-3.762,0.701c-1.328,0-2.518-0.226-3.57-0.678
		c-1.052-0.452-1.944-1.076-2.676-1.872s-1.294-1.74-1.686-2.832c-0.392-1.092-0.588-2.277-0.588-3.558
		c0-1.304,0.212-2.502,0.636-3.594c0.424-1.093,1.02-2.034,1.788-2.826s1.688-1.408,2.76-1.849c1.072-0.439,2.252-0.659,3.54-0.659
		c0.656,0,1.274,0.058,1.854,0.174c0.58,0.116,1.122,0.275,1.626,0.479c0.504,0.204,0.968,0.45,1.392,0.738
		c0.424,0.288,0.8,0.6,1.128,0.936l-1.368,1.836c-0.088,0.112-0.192,0.215-0.312,0.307s-0.288,0.138-0.504,0.138
		c-0.144,0-0.28-0.032-0.408-0.096s-0.264-0.143-0.408-0.234c-0.144-0.091-0.302-0.191-0.474-0.3
		c-0.172-0.108-0.376-0.208-0.612-0.3c-0.236-0.092-0.512-0.17-0.828-0.234c-0.316-0.063-0.686-0.096-1.11-0.096
		c-0.672,0-1.286,0.124-1.842,0.372s-1.036,0.61-1.44,1.086s-0.716,1.06-0.936,1.752s-0.33,1.481-0.33,2.37
		c0,0.896,0.122,1.691,0.366,2.388c0.244,0.696,0.576,1.282,0.996,1.758c0.42,0.477,0.91,0.839,1.47,1.086
		c0.56,0.248,1.16,0.372,1.8,0.372c0.368,0,0.704-0.018,1.008-0.054c0.304-0.036,0.588-0.096,0.852-0.18
		c0.264-0.084,0.512-0.196,0.744-0.336c0.232-0.141,0.468-0.318,0.708-0.534c0.096-0.08,0.2-0.146,0.312-0.198
		C145.163,48.605,145.279,48.579,145.399,48.579z M147.151,30.699l-3.876,3.42c-0.096,0.088-0.188,0.156-0.276,0.204
		c-0.088,0.048-0.18,0.084-0.276,0.108c-0.096,0.023-0.198,0.04-0.306,0.048s-0.23,0.012-0.366,0.012h-2.712l2.268-3.24
		c0.096-0.128,0.19-0.229,0.282-0.306c0.092-0.076,0.192-0.132,0.3-0.168c0.108-0.036,0.232-0.058,0.372-0.066
		s0.302-0.012,0.486-0.012H147.151z"/>
</g>
<g enable-background="new    ">
	<path fill="#6D6E71" d="M214.914,49.899c0.544,0,1.03-0.09,1.458-0.271c0.428-0.18,0.79-0.438,1.086-0.773
		c0.295-0.336,0.522-0.746,0.678-1.23c0.156-0.483,0.234-1.033,0.234-1.649V35.619h4.056v10.356c0,1.072-0.174,2.056-0.522,2.952
		c-0.348,0.896-0.846,1.668-1.494,2.315c-0.648,0.648-1.436,1.152-2.364,1.512c-0.928,0.36-1.972,0.54-3.132,0.54
		c-1.168,0-2.216-0.18-3.144-0.54c-0.928-0.359-1.716-0.863-2.364-1.512c-0.648-0.647-1.144-1.42-1.488-2.315
		c-0.344-0.896-0.516-1.88-0.516-2.952V35.619h4.056v10.344c0,0.616,0.078,1.166,0.234,1.65c0.156,0.484,0.382,0.896,0.678,1.236
		c0.296,0.34,0.658,0.6,1.086,0.779C213.884,49.809,214.37,49.899,214.914,49.899z"/>
	<path fill="#6D6E71" d="M241.458,44.355c0,1.264-0.218,2.43-0.654,3.498c-0.436,1.067-1.05,1.992-1.842,2.771
		c-0.792,0.78-1.746,1.389-2.862,1.824c-1.116,0.437-2.354,0.654-3.714,0.654h-6.792V35.619h6.792c1.36,0,2.598,0.221,3.714,0.66
		c1.116,0.44,2.07,1.048,2.862,1.824c0.792,0.775,1.406,1.698,1.842,2.766C241.24,41.937,241.458,43.099,241.458,44.355z
		 M237.306,44.355c0-0.864-0.112-1.645-0.336-2.34c-0.224-0.696-0.546-1.286-0.966-1.771c-0.42-0.483-0.934-0.855-1.542-1.116
		c-0.608-0.26-1.3-0.39-2.076-0.39h-2.712v11.244h2.712c0.776,0,1.468-0.13,2.076-0.39c0.608-0.261,1.122-0.633,1.542-1.116
		c0.42-0.484,0.742-1.074,0.966-1.771C237.194,46.011,237.306,45.227,237.306,44.355z"/>
	<path fill="#6D6E71" d="M261.018,44.355c0,1.264-0.218,2.439-0.654,3.527c-0.438,1.089-1.05,2.034-1.842,2.839
		c-0.792,0.804-1.746,1.434-2.862,1.89c-1.116,0.456-2.354,0.684-3.714,0.684c-1.36,0-2.6-0.228-3.72-0.684s-2.078-1.086-2.874-1.89
		c-0.796-0.805-1.412-1.75-1.848-2.839c-0.436-1.088-0.654-2.264-0.654-3.527s0.218-2.44,0.654-3.528s1.052-2.032,1.848-2.832
		c0.796-0.8,1.754-1.428,2.874-1.884s2.36-0.684,3.72-0.684c1.36,0,2.598,0.229,3.714,0.689c1.116,0.46,2.07,1.09,2.862,1.89
		c0.792,0.801,1.406,1.744,1.842,2.832C260.799,41.927,261.018,43.099,261.018,44.355z M256.866,44.355
		c0-0.864-0.112-1.643-0.336-2.334c-0.224-0.692-0.546-1.278-0.966-1.758s-0.934-0.849-1.542-1.104
		c-0.608-0.255-1.3-0.384-2.076-0.384c-0.784,0-1.482,0.128-2.094,0.384c-0.612,0.256-1.128,0.624-1.548,1.104
		c-0.42,0.479-0.742,1.065-0.966,1.758c-0.224,0.691-0.336,1.47-0.336,2.334c0,0.872,0.112,1.654,0.336,2.346
		c0.224,0.692,0.546,1.278,0.966,1.758c0.42,0.48,0.936,0.847,1.548,1.099s1.31,0.378,2.094,0.378c0.776,0,1.468-0.126,2.076-0.378
		s1.122-0.618,1.542-1.099c0.42-0.479,0.742-1.065,0.966-1.758C256.753,46.009,256.866,45.227,256.866,44.355z"/>
	<path fill="#6D6E71" d="M273.065,39.17c-0.12,0.192-0.246,0.336-0.378,0.433c-0.132,0.096-0.302,0.144-0.51,0.144
		c-0.184,0-0.382-0.058-0.594-0.174c-0.212-0.116-0.452-0.246-0.72-0.39c-0.268-0.145-0.574-0.274-0.918-0.391
		c-0.344-0.115-0.736-0.174-1.176-0.174c-0.76,0-1.326,0.162-1.698,0.486c-0.372,0.324-0.558,0.762-0.558,1.313
		c0,0.353,0.112,0.645,0.336,0.876c0.224,0.232,0.518,0.433,0.882,0.601c0.364,0.168,0.78,0.322,1.248,0.462
		c0.468,0.14,0.946,0.296,1.434,0.468c0.488,0.172,0.966,0.374,1.434,0.606c0.468,0.231,0.884,0.527,1.248,0.888
		c0.364,0.36,0.658,0.798,0.882,1.313c0.224,0.517,0.336,1.139,0.336,1.866c0,0.809-0.14,1.564-0.42,2.269
		c-0.28,0.704-0.686,1.317-1.218,1.842c-0.532,0.525-1.188,0.936-1.968,1.236c-0.78,0.3-1.667,0.449-2.658,0.449
		c-0.544,0-1.098-0.056-1.662-0.168c-0.564-0.111-1.11-0.27-1.638-0.474c-0.528-0.204-1.024-0.446-1.488-0.726
		c-0.464-0.28-0.868-0.593-1.212-0.937l1.2-1.896c0.096-0.137,0.222-0.25,0.378-0.343c0.156-0.092,0.326-0.138,0.51-0.138
		c0.24,0,0.482,0.076,0.726,0.229c0.244,0.151,0.52,0.319,0.828,0.504c0.308,0.184,0.662,0.352,1.062,0.504
		c0.4,0.151,0.872,0.228,1.416,0.228c0.736,0,1.308-0.162,1.716-0.485c0.408-0.324,0.612-0.839,0.612-1.542
		c0-0.408-0.112-0.74-0.336-0.996c-0.224-0.256-0.518-0.469-0.882-0.637c-0.364-0.168-0.778-0.315-1.242-0.443
		s-0.94-0.271-1.428-0.427c-0.488-0.155-0.964-0.348-1.428-0.575c-0.464-0.229-0.878-0.528-1.242-0.9
		c-0.364-0.372-0.658-0.836-0.882-1.392c-0.224-0.557-0.336-1.242-0.336-2.059c0-0.655,0.132-1.296,0.396-1.92
		c0.264-0.624,0.652-1.18,1.164-1.668c0.512-0.487,1.14-0.878,1.884-1.17s1.596-0.438,2.556-0.438c0.536,0,1.058,0.042,1.566,0.126
		c0.508,0.084,0.99,0.208,1.446,0.371c0.456,0.164,0.882,0.36,1.278,0.589c0.396,0.228,0.75,0.485,1.062,0.773L273.065,39.17z"/>
	<path fill="#6D6E71" d="M289.265,38.834h-4.92v14.269h-4.056V38.834h-4.92v-3.216h13.896V38.834L289.265,38.834z"/>
	<path fill="#6D6E71" d="M295.396,38.739v4.08h5.496v3h-5.496v4.164h7.178v3.12h-1.105c-0.311,0.168-0.578,0.378-0.797,0.63
		c-0.221,0.252-0.33,0.529-0.33,0.834c0,0.191,0.053,0.346,0.162,0.462c0.107,0.116,0.27,0.174,0.484,0.174
		c0.121,0,0.217-0.004,0.289-0.012c0.072-0.008,0.133-0.019,0.18-0.03c0.049-0.011,0.088-0.023,0.121-0.036
		c0.031-0.012,0.066-0.018,0.107-0.018c0.168,0,0.277,0.076,0.336,0.228l0.551,1.332c-0.279,0.168-0.627,0.311-1.043,0.427
		c-0.416,0.115-0.859,0.174-1.332,0.174c-0.855,0-1.506-0.168-1.949-0.504c-0.445-0.336-0.666-0.765-0.666-1.284
		c0-0.408,0.135-0.816,0.406-1.225c0.271-0.407,0.709-0.792,1.309-1.151h-7.979V35.619h11.255v3.12H295.396z"/>
	<path fill="#6D6E71" d="M311.236,35.619c1.23,0,2.291,0.146,3.176,0.438c0.883,0.292,1.611,0.693,2.184,1.206
		c0.572,0.512,0.994,1.115,1.266,1.812c0.271,0.696,0.408,1.448,0.408,2.256c0,0.872-0.141,1.672-0.42,2.4
		c-0.281,0.728-0.709,1.352-1.285,1.872s-1.305,0.926-2.188,1.218c-0.885,0.292-1.932,0.438-3.141,0.438h-2.109v5.845h-4.059V35.619
		H311.236z M311.236,44.199c1.057,0,1.814-0.252,2.281-0.756c0.463-0.504,0.693-1.208,0.693-2.112c0-0.399-0.063-0.764-0.18-1.092
		c-0.119-0.328-0.305-0.61-0.549-0.846c-0.242-0.236-0.551-0.418-0.924-0.546c-0.371-0.128-0.813-0.192-1.326-0.192h-2.109v5.544
		H311.236z"/>
	<path fill="#6D6E71" d="M335.595,35.619v17.484h-2.111c-0.313,0-0.572-0.05-0.783-0.15c-0.215-0.1-0.426-0.273-0.633-0.521
		l-8.242-10.429c0.029,0.313,0.055,0.614,0.064,0.906s0.02,0.566,0.02,0.822v9.372h-3.576V35.619h2.137
		c0.176,0,0.324,0.008,0.443,0.024c0.121,0.016,0.229,0.046,0.322,0.09c0.096,0.044,0.189,0.106,0.275,0.186
		c0.088,0.08,0.189,0.188,0.301,0.324l8.316,10.5c-0.041-0.336-0.068-0.662-0.084-0.978c-0.018-0.316-0.025-0.614-0.025-0.895
		v-9.252L335.595,35.619L335.595,35.619z"/>
	<path fill="#6D6E71" d="M343.06,53.103h-4.08V35.619h4.08V53.103z"/>
	<path fill="#6D6E71" d="M362.128,53.103h-3.146c-0.352,0-0.635-0.082-0.852-0.246s-0.381-0.374-0.492-0.63l-1.031-3.048h-6.646
		l-1.033,3.048c-0.088,0.224-0.246,0.426-0.473,0.605c-0.23,0.181-0.512,0.271-0.848,0.271h-3.168l6.77-17.484h4.15L362.128,53.103z
		 M355.683,46.418l-1.619-4.788c-0.121-0.304-0.248-0.661-0.385-1.073c-0.135-0.412-0.27-0.858-0.408-1.338
		c-0.119,0.487-0.248,0.939-0.383,1.355c-0.137,0.416-0.264,0.776-0.385,1.08l-1.607,4.764H355.683z"/>
	<path fill="#6D6E71" d="M374.705,48.579c0.096,0,0.191,0.019,0.287,0.054c0.098,0.036,0.188,0.099,0.275,0.187l1.607,1.692
		c-0.703,0.92-1.586,1.613-2.646,2.082c-1.061,0.468-2.313,0.701-3.762,0.701c-1.328,0-2.52-0.226-3.57-0.678
		c-1.053-0.452-1.941-1.076-2.676-1.872s-1.295-1.74-1.686-2.832c-0.395-1.092-0.59-2.277-0.59-3.558
		c0-1.304,0.213-2.502,0.637-3.594c0.424-1.093,1.02-2.034,1.789-2.826c0.768-0.792,1.688-1.408,2.76-1.849
		c1.072-0.439,2.252-0.659,3.539-0.659c0.656,0,1.273,0.058,1.854,0.174c0.58,0.116,1.121,0.275,1.625,0.479s0.971,0.45,1.395,0.738
		s0.801,0.6,1.129,0.936l-1.369,1.836c-0.088,0.112-0.189,0.215-0.313,0.307c-0.119,0.092-0.287,0.138-0.506,0.138
		c-0.143,0-0.277-0.032-0.406-0.096c-0.127-0.064-0.266-0.143-0.406-0.234c-0.145-0.091-0.303-0.191-0.477-0.3
		c-0.172-0.108-0.377-0.208-0.609-0.3c-0.236-0.092-0.516-0.17-0.828-0.234c-0.316-0.063-0.689-0.096-1.109-0.096
		c-0.672,0-1.285,0.124-1.842,0.372c-0.559,0.248-1.037,0.61-1.439,1.086c-0.404,0.476-0.717,1.06-0.938,1.752
		s-0.33,1.481-0.33,2.37c0,0.896,0.123,1.691,0.365,2.388c0.244,0.697,0.576,1.282,0.996,1.758c0.42,0.477,0.91,0.839,1.471,1.086
		c0.561,0.248,1.16,0.372,1.801,0.372c0.367,0,0.703-0.018,1.008-0.054c0.305-0.036,0.588-0.096,0.854-0.18
		c0.264-0.084,0.512-0.196,0.744-0.336c0.23-0.141,0.467-0.318,0.707-0.534c0.096-0.08,0.199-0.146,0.313-0.198
		C374.468,48.605,374.583,48.579,374.705,48.579z M376.457,30.699l-3.877,3.42c-0.096,0.088-0.188,0.156-0.275,0.204
		c-0.086,0.048-0.18,0.084-0.275,0.108c-0.096,0.023-0.197,0.04-0.307,0.048c-0.105,0.008-0.229,0.012-0.365,0.012h-2.713l2.27-3.24
		c0.098-0.128,0.189-0.229,0.281-0.306c0.094-0.076,0.191-0.132,0.301-0.168c0.107-0.036,0.23-0.058,0.373-0.066
		c0.141-0.008,0.301-0.012,0.484-0.012H376.457z"/>
</g>
<g>
	<path fill="#414042" d="M405.699,53.103h-3.145c-0.354,0-0.637-0.082-0.854-0.246c-0.215-0.164-0.379-0.374-0.49-0.63l-1.031-3.048
		h-6.648l-1.031,3.048c-0.088,0.224-0.246,0.426-0.475,0.605c-0.229,0.181-0.51,0.271-0.848,0.271h-3.168l6.77-17.484h4.152
		L405.699,53.103z M399.255,46.418l-1.621-4.788c-0.119-0.304-0.248-0.661-0.383-1.073c-0.137-0.412-0.273-0.858-0.408-1.338
		c-0.121,0.487-0.248,0.939-0.385,1.355c-0.135,0.416-0.266,0.776-0.383,1.08l-1.609,4.764H399.255z"/>
	<path fill="#414042" d="M422.943,44.355c0,1.264-0.219,2.43-0.654,3.498c-0.438,1.067-1.049,1.992-1.842,2.771
		c-0.791,0.78-1.746,1.389-2.861,1.824c-1.115,0.437-2.354,0.654-3.715,0.654h-6.791V35.619h6.791c1.359,0,2.6,0.221,3.715,0.66
		c1.115,0.44,2.07,1.048,2.861,1.824c0.793,0.775,1.404,1.698,1.842,2.766C422.724,41.937,422.943,43.099,422.943,44.355z
		 M418.791,44.355c0-0.864-0.111-1.645-0.336-2.34c-0.225-0.696-0.545-1.286-0.965-1.771c-0.42-0.483-0.936-0.855-1.543-1.116
		c-0.607-0.26-1.301-0.39-2.076-0.39h-2.711v11.244h2.711c0.775,0,1.469-0.13,2.076-0.39c0.607-0.261,1.123-0.633,1.543-1.116
		c0.42-0.484,0.74-1.074,0.965-1.771C418.679,46.011,418.791,45.227,418.791,44.355z"/>
	<path fill="#414042" d="M440.427,53.103h-3.145c-0.354,0-0.635-0.082-0.854-0.246c-0.217-0.164-0.381-0.374-0.49-0.63l-1.031-3.048
		h-6.648l-1.033,3.048c-0.088,0.224-0.242,0.426-0.473,0.605c-0.229,0.181-0.51,0.271-0.846,0.271h-3.168l6.768-17.484h4.152
		L440.427,53.103z M433.984,46.418l-1.621-4.788c-0.119-0.304-0.248-0.661-0.383-1.073c-0.139-0.412-0.273-0.858-0.408-1.338
		c-0.121,0.487-0.248,0.939-0.385,1.355s-0.266,0.776-0.385,1.08l-1.607,4.764H433.984z"/>
	<path fill="#414042" d="M447.974,35.619c1.232,0,2.291,0.146,3.176,0.438s1.611,0.693,2.184,1.206
		c0.572,0.512,0.994,1.115,1.268,1.812c0.271,0.696,0.408,1.448,0.408,2.256c0,0.872-0.141,1.672-0.42,2.4
		c-0.281,0.728-0.709,1.352-1.285,1.872s-1.307,0.926-2.188,1.218c-0.887,0.292-1.932,0.438-3.141,0.438h-2.109v5.845h-4.059V35.619
		H447.974z M447.974,44.199c1.059,0,1.816-0.252,2.281-0.756c0.463-0.504,0.695-1.208,0.695-2.112c0-0.399-0.063-0.764-0.182-1.092
		c-0.119-0.328-0.303-0.61-0.547-0.846s-0.551-0.418-0.924-0.546c-0.371-0.128-0.813-0.192-1.326-0.192h-2.109v5.544H447.974z"/>
	<path fill="#414042" d="M469.634,38.834h-4.92v14.269h-4.057V38.834h-4.92v-3.216h13.895L469.634,38.834L469.634,38.834z"/>
	<path fill="#414042" d="M488.439,44.355c0,1.264-0.221,2.439-0.654,3.527c-0.438,1.089-1.051,2.034-1.842,2.839
		c-0.793,0.804-1.746,1.434-2.861,1.89c-1.117,0.456-2.355,0.684-3.715,0.684s-2.602-0.228-3.721-0.684s-2.078-1.086-2.873-1.89
		c-0.799-0.805-1.412-1.75-1.85-2.839c-0.438-1.088-0.652-2.264-0.652-3.527s0.217-2.44,0.652-3.528
		c0.438-1.088,1.051-2.032,1.85-2.832c0.795-0.8,1.754-1.428,2.873-1.884s2.359-0.684,3.721-0.684c1.357,0,2.598,0.229,3.715,0.689
		c1.115,0.46,2.068,1.09,2.861,1.89c0.791,0.801,1.404,1.744,1.842,2.832C488.22,41.927,488.439,43.099,488.439,44.355z
		 M484.287,44.355c0-0.864-0.111-1.643-0.336-2.334c-0.227-0.692-0.547-1.278-0.967-1.758s-0.936-0.849-1.541-1.104
		c-0.607-0.256-1.303-0.384-2.076-0.384c-0.783,0-1.482,0.128-2.094,0.384c-0.611,0.256-1.131,0.624-1.551,1.104
		c-0.42,0.479-0.74,1.065-0.965,1.758c-0.225,0.691-0.336,1.47-0.336,2.334c0,0.872,0.111,1.654,0.336,2.346
		c0.225,0.692,0.545,1.278,0.965,1.758s0.939,0.847,1.551,1.099c0.609,0.252,1.311,0.378,2.094,0.378
		c0.773,0,1.469-0.126,2.076-0.378c0.605-0.252,1.121-0.618,1.541-1.099c0.42-0.479,0.74-1.065,0.967-1.758
		C484.173,46.009,484.287,45.227,484.287,44.355z"/>
	<path fill="#414042" d="M514.191,35.619l-5.4,17.484h-3.672l-3.287-10.836c-0.064-0.168-0.125-0.354-0.18-0.559
		c-0.059-0.205-0.113-0.418-0.17-0.642c-0.057,0.224-0.111,0.438-0.168,0.642s-0.115,0.391-0.182,0.559l-3.336,10.836h-3.672
		l-5.4-17.484h3.408c0.355,0,0.646,0.08,0.883,0.24c0.236,0.16,0.393,0.372,0.461,0.636l2.4,9.12
		c0.072,0.288,0.145,0.603,0.217,0.942c0.072,0.34,0.146,0.693,0.215,1.062c0.146-0.752,0.32-1.42,0.529-2.004l2.832-9.12
		c0.072-0.224,0.225-0.426,0.461-0.605c0.236-0.181,0.523-0.271,0.859-0.271h1.197c0.354,0,0.639,0.082,0.854,0.246
		c0.217,0.164,0.381,0.374,0.492,0.63l2.809,9.12c0.207,0.561,0.383,1.196,0.527,1.908c0.063-0.36,0.131-0.698,0.197-1.015
		c0.066-0.315,0.139-0.613,0.211-0.894l2.398-9.12c0.064-0.231,0.215-0.436,0.455-0.612c0.24-0.176,0.529-0.264,0.865-0.264
		L514.191,35.619L514.191,35.619z"/>
	<path fill="#414042" d="M530.367,53.103h-3.146c-0.352,0-0.635-0.082-0.852-0.246c-0.215-0.164-0.379-0.374-0.492-0.63
		l-1.031-3.048h-6.646l-1.031,3.048c-0.088,0.224-0.246,0.426-0.475,0.605c-0.229,0.181-0.512,0.271-0.848,0.271h-3.168l6.77-17.484
		h4.15L530.367,53.103z M523.923,46.418l-1.621-4.788c-0.119-0.304-0.248-0.661-0.383-1.073c-0.137-0.412-0.271-0.858-0.408-1.338
		c-0.121,0.487-0.248,0.939-0.385,1.355s-0.264,0.776-0.385,1.08l-1.607,4.764H523.923z"/>
	<path fill="#414042" d="M542.943,48.579c0.096,0,0.189,0.019,0.289,0.054c0.096,0.036,0.188,0.099,0.273,0.187l1.607,1.692
		c-0.703,0.92-1.586,1.613-2.646,2.082c-1.061,0.468-2.313,0.701-3.762,0.701c-1.328,0-2.52-0.226-3.57-0.678
		c-1.051-0.452-1.941-1.076-2.676-1.872c-0.73-0.796-1.293-1.74-1.686-2.832c-0.395-1.092-0.59-2.277-0.59-3.558
		c0-1.304,0.213-2.502,0.639-3.594c0.424-1.093,1.02-2.034,1.787-2.826c0.766-0.792,1.688-1.408,2.76-1.849
		c1.072-0.439,2.252-0.659,3.541-0.659c0.654,0,1.271,0.058,1.854,0.174c0.58,0.116,1.121,0.275,1.625,0.479
		c0.506,0.204,0.971,0.45,1.395,0.738s0.801,0.6,1.129,0.936l-1.369,1.836c-0.088,0.112-0.189,0.215-0.313,0.307
		c-0.121,0.092-0.287,0.138-0.504,0.138c-0.145,0-0.279-0.032-0.408-0.096c-0.127-0.064-0.266-0.143-0.406-0.234
		c-0.146-0.092-0.303-0.191-0.475-0.3c-0.174-0.109-0.377-0.208-0.611-0.3c-0.236-0.092-0.514-0.17-0.828-0.234
		c-0.316-0.063-0.688-0.096-1.111-0.096c-0.672,0-1.283,0.124-1.842,0.372c-0.557,0.248-1.035,0.61-1.438,1.086
		c-0.404,0.476-0.719,1.06-0.938,1.752c-0.221,0.692-0.33,1.481-0.33,2.37c0,0.896,0.121,1.691,0.365,2.388
		c0.244,0.697,0.576,1.282,0.996,1.758c0.42,0.477,0.91,0.839,1.471,1.086c0.561,0.248,1.16,0.372,1.799,0.372
		c0.369,0,0.705-0.018,1.008-0.054c0.307-0.036,0.59-0.096,0.855-0.18c0.264-0.084,0.512-0.196,0.744-0.336
		c0.229-0.141,0.467-0.318,0.707-0.534c0.096-0.08,0.199-0.146,0.313-0.198C542.707,48.605,542.824,48.579,542.943,48.579z
		 M544.695,30.699l-3.875,3.42c-0.098,0.088-0.189,0.156-0.277,0.204c-0.088,0.048-0.18,0.084-0.275,0.108
		c-0.096,0.023-0.195,0.04-0.307,0.048c-0.107,0.008-0.229,0.012-0.365,0.012h-2.713l2.271-3.24
		c0.096-0.128,0.188-0.229,0.279-0.306c0.094-0.077,0.191-0.132,0.303-0.168c0.107-0.036,0.229-0.058,0.371-0.066
		c0.141-0.008,0.303-0.012,0.484-0.012H544.695z"/>
</g>
</svg>
