<?xml version="1.0" encoding="utf-8"?>
<!-- Generator: Adobe Illustrator 16.0.3, SVG Export Plug-In . SVG Version: 6.00 Build 0)  -->
<!DOCTYPE svg PUBLIC "-//W3C//DTD SVG 1.1//EN" "http://www.w3.org/Graphics/SVG/1.1/DTD/svg11.dtd">
<svg version="1.1" id="Layer_1" xmlns="http://www.w3.org/2000/svg" xmlns:xlink="http://www.w3.org/1999/xlink" x="0px" y="0px"
	 width="595.281px" height="280.629px" viewBox="0 0 595.281 280.629" enable-background="new 0 0 595.281 280.629"
	 xml:space="preserve">
<g>
	<path fill="#F4D019" d="M557.814,86.102c0.381,0.109,0.98,0.272,1.416,0.381l0.053,0.599c-0.49-0.163-1.143-0.381-1.469-0.599
		V86.102z"/>
	<g>
		<rect x="386.271" y="53.7" fill="#414042" width="179.928" height="189.623"/>
	</g>
	<g>
		<rect x="206.995" y="53.7" fill="#6D6E71" width="179.928" height="189.785"/>
	</g>
	<g>
		<rect x="27.284" y="53.7" fill="#A7A9AC" width="179.929" height="190.003"/>
	</g>
	<g>
		<polygon fill="#A7A9AC" points="206.995,89.805 206.995,207.217 229.758,148.51 		"/>
	</g>
	<g>
		<polygon fill="#414042" points="470.027,89.587 470.027,206.999 492.791,148.293 		"/>
	</g>
	<g>
		<polygon fill="#6D6E71" points="386.271,89.805 386.271,207.217 409.035,148.51 		"/>
	</g>
	<path fill="#E6E7E8" stroke="#F4D019" stroke-width="13" stroke-miterlimit="10" d="M169.637,171.219
		c0,4.086-3.322,7.354-7.352,7.354H70.741c-4.084,0-7.352-3.322-7.352-7.354V118.94c0-4.084,3.322-7.352,7.352-7.352h91.544
		c4.084,0,7.352,3.322,7.352,7.352V171.219L169.637,171.219z"/>
	<rect x="52.824" y="182.709" fill="#F4D019" width="127.377" height="8.279"/>
	<g>
		<g>
			
				<linearGradient id="SVGID_1_" gradientUnits="userSpaceOnUse" x1="1606.4536" y1="2064.6196" x2="1642.7245" y2="1998.8989" gradientTransform="matrix(0.5446 5.990379e-004 -5.990379e-004 0.5446 -578.869 -956.9138)">
				<stop  offset="0" style="stop-color:#FFFFFF"/>
				<stop  offset="1" style="stop-color:#E1E1E1"/>
			</linearGradient>
			<path fill="url(#SVGID_1_)" d="M279.152,112.787h32.457c7.188,5.119,15.41,12.743,21.074,21.075v49.938h-53.477L279.152,112.787
				L279.152,112.787z"/>
			<path fill="none" stroke="#C8C8C8" stroke-width="0.5" d="M279.152,112.787h32.457c7.188,5.119,15.41,12.743,21.074,21.075
				v49.938h-53.477L279.152,112.787L279.152,112.787z"/>
			<g>
				
					<linearGradient id="SVGID_2_" gradientUnits="userSpaceOnUse" x1="1650.3306" y1="1985.5269" x2="1655.9221" y2="1980.3728" gradientTransform="matrix(0.5446 0 0 0.5446 -579.0724 -955.7366)">
					<stop  offset="0" style="stop-color:#FFFFFF"/>
					<stop  offset="1" style="stop-color:#C8C8C8"/>
				</linearGradient>
				<path fill="url(#SVGID_2_)" d="M311.609,112.787c7.842,5.718,15.303,12.743,21.074,21.075
					c-3.758-3.867-8.822-5.936-14.922-5.664C318.47,121.01,315.693,116.381,311.609,112.787z"/>
				<path fill="none" stroke="#C8C8C8" stroke-width="0.5" d="M311.609,112.787c7.842,5.718,15.303,12.743,21.074,21.075
					c-3.758-3.867-8.822-5.936-14.922-5.664C318.47,121.01,315.693,116.381,311.609,112.787z"/>
			</g>
			
				<rect id="rect3372_2_" x="264.285" y="117.796" fill="none" stroke="#C8C8C8" stroke-width="6.0045" width="48.304" height="16.229"/>
			<path id="path4463_2_" fill="#EE2A24" d="M298.049,159.51c1.306-2.559,2.777-5.445,3.974-8.33l0,0l0.49-1.145
				c-1.523-5.881-2.504-10.62-1.633-13.669l0,0c0.217-0.817,1.143-1.307,2.123-1.307l0,0h0.6h0.109c1.361,0,2.014,1.688,2.068,2.396
				l0,0c0.107,1.089-0.383,2.995-0.383,2.995l0,0c0-0.763,0.057-2.015-0.436-3.05l0,0c-0.545-1.252-1.088-1.96-1.578-2.069l0,0
				c-0.219,0.164-0.49,0.49-0.545,1.144l0,0c-0.164,0.926-0.219,2.015-0.219,2.614l0,0c0,2.07,0.436,4.792,1.199,7.625l0,0
				c0.162-0.436,0.271-0.871,0.381-1.252l0,0c0.164-0.6,1.197-4.738,1.197-4.738l0,0c0,0-0.271,5.445-0.652,7.135l0,0
				c-0.055,0.326-0.164,0.707-0.273,1.033l0,0c1.309,3.703,3.432,7.023,5.99,9.365l0,0c0.98,0.928,2.289,1.689,3.486,2.396l0,0
				c2.613-0.381,5.01-0.545,7.025-0.545l0,0c2.668,0.055,4.629,0.436,5.445,1.199l0,0c0.381,0.381,0.545,0.816,0.598,1.361l0,0
				c0,0.217-0.107,0.652-0.107,0.762l0,0c0.055-0.162,0.055-0.871-2.123-1.523l0,0c-1.689-0.545-4.848-0.545-8.66-0.109l0,0
				c4.357,2.123,8.66,3.213,10.021,2.561l0,0c0.326-0.164,0.707-0.707,0.707-0.707l0,0c0,0-0.217,1.088-0.436,1.359l0,0
				c-0.219,0.271-0.654,0.6-1.035,0.707l0,0c-2.123,0.545-7.678-0.762-12.525-3.539l0,0c-5.391,0.816-11.381,2.287-16.118,3.813l0,0
				c-4.684,8.225-8.223,11.98-11.055,10.566l0,0l-1.035-0.547c-0.436-0.271-0.49-0.814-0.381-1.307l0,0
				c0.327-1.635,2.396-4.084,6.48-6.535l0,0c0.436-0.271,2.396-1.307,2.396-1.307l0,0c0,0-1.471,1.416-1.797,1.688l0,0
				c-3.267,2.668-5.718,6.102-5.664,7.406l0,0v0.109C288.464,175.741,292.657,170.022,298.049,159.51 M299.736,160.383
				c-0.926,1.688-1.796,3.268-2.613,4.684l0,0c4.464-1.906,9.312-3.105,13.941-3.922l0,0c-0.6-0.436-1.197-0.871-1.797-1.361l0,0
				c-2.561-2.123-4.467-4.793-5.881-7.623l0,0C302.568,154.555,301.48,157.061,299.736,160.383"/>
			<path fill="#1B181C" d="M304.093,177.102l-0.381-2.342c-0.109-0.654-0.219-1.689-0.326-2.451h-0.055
				c-0.109,0.709-0.273,1.797-0.383,2.451l-0.383,2.342H304.093z M302.406,178.625l-0.49,2.561h-1.742l2.178-10.729h2.123
				l1.961,10.729h-1.742l-0.436-2.561H302.406L302.406,178.625z"/>
			<path fill="#1B181C" d="M310.412,176.393c0-0.162,0-0.326,0-0.436c-0.057-0.545-0.328-0.98-0.764-0.98
				c-0.707,0-0.98,1.145-0.98,2.451c0,1.525,0.383,2.342,0.926,2.342c0.273,0,0.545-0.164,0.709-0.764
				c0.055-0.107,0.055-0.271,0.055-0.488L310.412,176.393L310.412,176.393z M312.154,170.186v8.768c0,0.707,0.055,1.578,0.055,2.232
				h-1.525l-0.107-0.871h-0.057c-0.27,0.545-0.814,1.035-1.469,1.035c-1.471,0-2.18-1.744-2.18-3.977
				c0-2.723,1.09-4.029,2.287-4.029c0.6,0,1.035,0.326,1.197,0.816h0.057v-3.922h1.742V170.186z"/>
			<path fill="#1B181C" d="M315.857,179.825c0.652,0,0.816-1.361,0.816-2.561c0-1.088-0.164-2.504-0.871-2.504
				c-0.764,0-0.926,1.416-0.926,2.504C314.931,178.625,315.093,179.825,315.857,179.825L315.857,179.825z M315.802,181.35
				c-1.635,0-2.67-1.416-2.67-3.977c0-2.777,1.309-4.029,2.725-4.029c1.633,0,2.613,1.523,2.613,3.975
				C318.47,180.477,316.89,181.35,315.802,181.35L315.802,181.35L315.802,181.35z"/>
			<path fill="#1B181C" d="M321.248,178.409c0,0.217,0.055,0.381,0.055,0.49c0.164,0.652,0.49,0.816,0.709,0.816
				c0.707,0,0.979-0.926,0.979-2.451c0-1.361-0.271-2.342-0.979-2.342c-0.328,0-0.6,0.383-0.709,0.816
				c-0.055,0.109-0.055,0.328-0.055,0.49V178.409L321.248,178.409z M319.505,170.186h1.797v4.029h0.055
				c0.326-0.6,0.816-0.926,1.471-0.926c1.361,0,2.014,1.633,2.014,3.813c0,2.723-0.979,4.191-2.287,4.191
				c-0.598,0-1.033-0.271-1.416-1.033h-0.053l-0.109,0.926h-1.523c0-0.654,0.055-1.525,0.055-2.232v-8.768H319.505z"/>
			<rect x="263.413" y="116.871" fill="#ED1C24" width="50.102" height="18.189"/>
			<g>
				<path fill="#FFF9FA" d="M276.919,120.247h3.54c1.035,0,1.852,0.327,2.396,0.926c0.544,0.599,0.817,1.471,0.817,2.614
					s-0.272,2.015-0.817,2.614s-1.362,0.926-2.396,0.926h-1.416v3.758h-2.124V120.247 M279.043,122.262v3.049h1.198
					c0.436,0,0.708-0.109,0.926-0.381s0.327-0.654,0.327-1.144c0-0.49-0.109-0.872-0.327-1.144s-0.544-0.381-0.926-0.381
					L279.043,122.262 M287.266,122.371v6.644h0.762c0.871,0,1.525-0.272,1.96-0.871c0.436-0.544,0.708-1.416,0.708-2.451
					c0-1.089-0.218-1.906-0.708-2.451c-0.436-0.544-1.089-0.871-1.96-0.871H287.266 M285.142,120.247h2.233
					c1.252,0,2.178,0.109,2.777,0.381c0.599,0.218,1.144,0.653,1.579,1.198c0.381,0.49,0.653,1.035,0.871,1.688
					c0.164,0.653,0.272,1.361,0.272,2.178s-0.109,1.58-0.272,2.178c-0.163,0.654-0.49,1.198-0.871,1.688
					c-0.436,0.544-0.98,0.98-1.579,1.198c-0.599,0.218-1.525,0.327-2.777,0.327h-2.233V120.247 M294.509,120.247h5.717v2.124h-3.593
					v2.015h3.376v2.124h-3.376v4.629h-2.124V120.247"/>
			</g>
		</g>
		<path fill="#EE2A24" d="M328,166.864h0.164c0.219,0,0.381-0.055,0.381-0.219c0-0.107-0.109-0.217-0.326-0.217
			c-0.109,0-0.164,0-0.219,0V166.864L328,166.864z M328,167.68h-0.271v-1.361c0.164,0,0.271-0.055,0.49-0.055
			c0.217,0,0.326,0.055,0.436,0.109c0.109,0.053,0.164,0.162,0.164,0.271c0,0.164-0.109,0.271-0.273,0.326l0,0
			c0.109,0.055,0.219,0.162,0.219,0.326c0.055,0.219,0.055,0.271,0.109,0.326h-0.273c-0.055-0.055-0.055-0.162-0.107-0.381
			c-0.055-0.164-0.107-0.219-0.326-0.219H328V167.68L328,167.68z M328.273,168.28c-0.709,0-1.307-0.6-1.307-1.307
			c0-0.709,0.598-1.309,1.307-1.309c0.707,0,1.307,0.6,1.307,1.309C329.58,167.68,328.98,168.28,328.273,168.28z M329.308,166.917
			c0-0.598-0.49-1.033-1.035-1.033s-1.035,0.49-1.035,1.033c0,0.6,0.49,1.035,1.035,1.035S329.308,167.516,329.308,166.917z"/>
		<path fill="#1B181C" d="M329.035,176.557c0-1.09-0.271-1.852-0.871-1.852c-0.652,0-0.926,1.033-0.926,1.852H329.035z
			 M327.238,177.918c0,1.416,0.709,1.852,1.525,1.852c0.545,0,0.98-0.109,1.307-0.271l0.219,1.361
			c-0.49,0.217-1.199,0.381-1.906,0.381c-1.906,0-2.941-1.416-2.941-3.813c0-2.613,1.199-4.139,2.777-4.139
			c1.525,0,2.342,1.361,2.342,3.648c0,0.488,0,0.814-0.055,1.035L327.238,177.918z"/>
	</g>
	<g>
		<g>
			<path fill="#77AF42" d="M452.273,186.086c0,2.232-1.852,4.084-4.084,4.084h-17.316c-2.234,0-4.086-1.852-4.086-4.084v-43.131
				c0-2.232,1.852-4.083,4.086-4.083h17.316c2.232,0,4.084,1.852,4.084,4.083V186.086z"/>
			<rect x="429.457" y="145.133" fill="#FFFFFF" width="20.039" height="38.014"/>
		</g>
		<circle fill="#77AF42" cx="445.576" cy="142.413" r="0.436"/>
		<path fill="#FFFFFF" d="M442.908,142.413c0,0.217-0.164,0.381-0.383,0.381h-6.098c-0.219,0-0.383-0.164-0.383-0.381l0,0
			c0-0.219,0.164-0.383,0.383-0.383h6.098C442.744,142.03,442.908,142.194,442.908,142.413L442.908,142.413z"/>
	</g>
	<g>
		<g>
			<path fill="#BCBEC0" d="M540.986,191.042c0,4.248-3.432,7.68-7.68,7.68h-58.705c-4.248,0-7.678-3.432-7.678-7.68V99.118
				c0-4.248,3.43-7.679,7.678-7.679h58.705c4.248,0,7.68,3.431,7.68,7.679V191.042L540.986,191.042z"/>
			<path fill="#FFFFFF" d="M530.857,185.161c0,1.199-0.98,2.125-2.125,2.125H479.23c-1.197,0-2.123-0.979-2.123-2.125v-80.106
				c0-1.198,0.98-2.124,2.123-2.124h49.502c1.199,0,2.125,0.98,2.125,2.124V185.161L530.857,185.161z"/>
		</g>
		<circle fill="#BCBEC0" cx="503.955" cy="96.667" r="1.144"/>
		<circle fill="#FFFFFF" cx="504.009" cy="192.731" r="2.561"/>
	</g>
	<circle fill="#FFFFFF" cx="443.289" cy="186.741" r="1.307"/>
	<g>
		<path fill="#6D6E71" d="M215.34,33.216c1.231,0,2.29,0.146,3.174,0.438c0.884,0.292,1.612,0.694,2.184,1.206
			c0.572,0.512,0.994,1.116,1.267,1.812c0.271,0.696,0.408,1.448,0.408,2.256c0,0.872-0.141,1.672-0.42,2.4
			c-0.28,0.728-0.708,1.352-1.284,1.872s-1.307,0.926-2.19,1.218c-0.884,0.292-1.93,0.438-3.138,0.438h-2.112V50.7h-4.056V33.216
			H215.34z M215.34,41.796c1.056,0,1.815-0.252,2.28-0.756c0.464-0.504,0.695-1.208,0.695-2.112c0-0.4-0.06-0.764-0.18-1.092
			c-0.12-0.328-0.302-0.61-0.546-0.846c-0.244-0.236-0.552-0.418-0.924-0.546s-0.814-0.192-1.326-0.192h-2.112v5.544H215.34z"/>
		<path fill="#6D6E71" d="M241.596,41.952c0,1.264-0.219,2.44-0.654,3.528c-0.437,1.088-1.05,2.034-1.842,2.838
			c-0.792,0.804-1.746,1.434-2.862,1.89c-1.116,0.456-2.354,0.684-3.714,0.684s-2.6-0.228-3.72-0.684
			c-1.12-0.456-2.078-1.086-2.874-1.89c-0.797-0.804-1.412-1.75-1.849-2.838c-0.436-1.088-0.653-2.264-0.653-3.528
			c0-1.264,0.218-2.44,0.653-3.528c0.437-1.088,1.052-2.032,1.849-2.832c0.796-0.8,1.754-1.428,2.874-1.884
			c1.12-0.456,2.359-0.684,3.72-0.684s2.598,0.23,3.714,0.69c1.116,0.46,2.07,1.09,2.862,1.89s1.405,1.744,1.842,2.832
			C241.377,39.524,241.596,40.696,241.596,41.952z M237.444,41.952c0-0.864-0.112-1.642-0.336-2.334
			c-0.224-0.692-0.546-1.278-0.966-1.758s-0.935-0.848-1.542-1.104c-0.608-0.256-1.301-0.384-2.076-0.384
			c-0.784,0-1.482,0.128-2.094,0.384c-0.612,0.256-1.128,0.624-1.548,1.104c-0.421,0.48-0.742,1.066-0.967,1.758
			c-0.224,0.692-0.336,1.47-0.336,2.334c0,0.872,0.112,1.654,0.336,2.346c0.225,0.692,0.546,1.278,0.967,1.758
			c0.42,0.48,0.936,0.846,1.548,1.098c0.611,0.252,1.31,0.378,2.094,0.378c0.775,0,1.468-0.126,2.076-0.378
			c0.607-0.252,1.122-0.618,1.542-1.098s0.742-1.066,0.966-1.758C237.332,43.606,237.444,42.824,237.444,41.952z"/>
		<path fill="#6D6E71" d="M250.416,33.216c1.208,0,2.236,0.112,3.084,0.336c0.848,0.224,1.54,0.54,2.076,0.948
			c0.536,0.408,0.926,0.904,1.17,1.488s0.366,1.236,0.366,1.956c0,0.392-0.056,0.77-0.168,1.134
			c-0.112,0.364-0.288,0.704-0.528,1.02s-0.548,0.606-0.924,0.87c-0.376,0.264-0.828,0.492-1.355,0.684
			c1.151,0.28,2.004,0.732,2.556,1.356c0.552,0.624,0.828,1.432,0.828,2.424c0,0.744-0.145,1.436-0.433,2.076
			c-0.288,0.64-0.71,1.198-1.266,1.674c-0.557,0.476-1.242,0.848-2.058,1.116c-0.816,0.268-1.748,0.402-2.797,0.402h-6.983V33.216
			H250.416z M248.04,36.251v4.32h2.112c0.448,0,0.852-0.032,1.212-0.096c0.36-0.064,0.666-0.176,0.918-0.336
			c0.252-0.16,0.444-0.38,0.576-0.66c0.132-0.28,0.198-0.632,0.198-1.056c0-0.416-0.053-0.762-0.156-1.038
			c-0.104-0.276-0.264-0.498-0.48-0.666c-0.216-0.168-0.49-0.288-0.821-0.36c-0.332-0.072-0.727-0.108-1.183-0.108H248.04z
			 M250.896,47.64c0.535,0,0.974-0.068,1.313-0.204c0.34-0.136,0.606-0.312,0.798-0.528c0.192-0.216,0.324-0.46,0.396-0.732
			c0.072-0.272,0.108-0.548,0.108-0.828c0-0.32-0.042-0.608-0.126-0.864c-0.085-0.256-0.229-0.472-0.433-0.648
			c-0.204-0.176-0.474-0.312-0.81-0.408c-0.336-0.096-0.761-0.144-1.272-0.144h-2.832v4.356H250.896z"/>
		<path fill="#6D6E71" d="M264.131,50.7h-4.08V33.216h4.08V50.7z"/>
		<path fill="#6D6E71" d="M271.595,36.336v4.08h5.496v3h-5.496v4.164h7.177v3.12h-11.257V33.216h11.257v3.12H271.595z"/>
		<path fill="#6D6E71" d="M295.572,50.7H291.9c-0.681,0-1.169-0.256-1.465-0.768l-2.903-5.076c-0.137-0.216-0.288-0.374-0.456-0.474
			c-0.168-0.1-0.408-0.15-0.721-0.15h-1.031V50.7h-4.057V33.216h5.688c1.264,0,2.342,0.13,3.233,0.39
			c0.893,0.26,1.62,0.623,2.185,1.086c0.563,0.464,0.974,1.012,1.229,1.644c0.257,0.632,0.385,1.32,0.385,2.064
			c0,0.568-0.076,1.104-0.229,1.608c-0.153,0.504-0.376,0.97-0.672,1.398c-0.296,0.428-0.662,0.81-1.098,1.146
			c-0.437,0.336-0.938,0.612-1.506,0.828c0.264,0.136,0.512,0.306,0.743,0.51c0.232,0.204,0.44,0.446,0.624,0.726L295.572,50.7z
			 M286.956,41.436c0.552,0,1.021-0.07,1.41-0.21c0.388-0.14,0.706-0.334,0.954-0.582c0.247-0.248,0.428-0.538,0.54-0.87
			c0.111-0.332,0.168-0.69,0.168-1.074c0-0.768-0.251-1.368-0.75-1.8c-0.5-0.432-1.274-0.648-2.322-0.648h-1.632v5.184H286.956z"/>
		<path fill="#6D6E71" d="M312.73,50.7h-3.143c-0.354,0-0.637-0.082-0.854-0.246s-0.381-0.374-0.49-0.63l-1.033-3.048h-6.648
			l-1.031,3.048c-0.088,0.224-0.244,0.426-0.475,0.606c-0.227,0.18-0.51,0.27-0.846,0.27h-3.167l6.767-17.484h4.152L312.73,50.7z
			 M306.289,44.016l-1.621-4.788c-0.119-0.304-0.248-0.662-0.383-1.074c-0.139-0.412-0.273-0.858-0.408-1.338
			c-0.121,0.488-0.248,0.94-0.385,1.356s-0.266,0.776-0.385,1.08l-1.607,4.764H306.289z"/>
		<path fill="#6D6E71" d="M325.306,46.176c0.098,0,0.193,0.018,0.289,0.054s0.188,0.098,0.275,0.186l1.607,1.692
			c-0.703,0.92-1.586,1.614-2.645,2.082c-1.063,0.468-2.314,0.702-3.764,0.702c-1.326,0-2.518-0.226-3.568-0.678
			c-1.053-0.452-1.945-1.076-2.676-1.872c-0.732-0.796-1.295-1.74-1.688-2.832c-0.393-1.092-0.588-2.278-0.588-3.558
			c0-1.304,0.211-2.502,0.637-3.594c0.424-1.092,1.02-2.034,1.787-2.826c0.77-0.792,1.688-1.408,2.76-1.848s2.252-0.66,3.541-0.66
			c0.654,0,1.273,0.058,1.854,0.174c0.58,0.116,1.123,0.276,1.627,0.48c0.504,0.204,0.967,0.45,1.393,0.738
			c0.424,0.288,0.799,0.6,1.127,0.936l-1.367,1.836c-0.088,0.112-0.191,0.214-0.313,0.306c-0.121,0.092-0.289,0.138-0.504,0.138
			c-0.145,0-0.281-0.032-0.408-0.096c-0.129-0.064-0.264-0.142-0.408-0.234c-0.145-0.092-0.303-0.192-0.475-0.3
			s-0.375-0.208-0.611-0.3c-0.234-0.092-0.512-0.17-0.828-0.234c-0.314-0.064-0.686-0.096-1.109-0.096
			c-0.672,0-1.285,0.124-1.842,0.372s-1.035,0.61-1.439,1.086s-0.717,1.06-0.936,1.752c-0.223,0.692-0.33,1.482-0.33,2.37
			c0,0.896,0.121,1.692,0.365,2.388c0.242,0.696,0.574,1.282,0.996,1.758c0.42,0.476,0.908,0.838,1.471,1.086
			c0.559,0.248,1.158,0.372,1.799,0.372c0.369,0,0.705-0.018,1.008-0.054c0.305-0.036,0.588-0.096,0.854-0.18
			c0.264-0.084,0.512-0.196,0.744-0.336c0.23-0.14,0.469-0.318,0.707-0.534c0.098-0.08,0.199-0.146,0.313-0.198
			C325.072,46.202,325.187,46.176,325.306,46.176z M327.058,28.296l-3.875,3.42c-0.096,0.088-0.188,0.156-0.275,0.204
			s-0.182,0.084-0.275,0.108c-0.096,0.024-0.199,0.04-0.307,0.048c-0.107,0.008-0.23,0.012-0.365,0.012h-2.713l2.268-3.24
			c0.098-0.128,0.191-0.23,0.283-0.306s0.191-0.132,0.299-0.168c0.109-0.036,0.232-0.058,0.373-0.066
			c0.141-0.008,0.301-0.012,0.486-0.012H327.058z"/>
	</g>
	<g enable-background="new    ">
		<path fill="#2D2D2D" d="M394.521,33.216c1.232,0,2.291,0.146,3.174,0.438c0.885,0.292,1.613,0.694,2.186,1.206
			c0.572,0.512,0.994,1.116,1.266,1.812c0.271,0.696,0.408,1.448,0.408,2.256c0,0.872-0.141,1.672-0.42,2.4
			s-0.707,1.352-1.283,1.872s-1.307,0.926-2.189,1.218c-0.885,0.292-1.932,0.438-3.139,0.438h-2.111V50.7h-4.057V33.216H394.521z
			 M394.521,41.796c1.057,0,1.816-0.252,2.281-0.756c0.463-0.504,0.695-1.208,0.695-2.112c0-0.4-0.061-0.764-0.182-1.092
			c-0.119-0.328-0.301-0.61-0.545-0.846c-0.244-0.236-0.553-0.418-0.924-0.546c-0.373-0.128-0.814-0.192-1.326-0.192h-2.111v5.544
			H394.521z"/>
		<path fill="#2D2D2D" d="M417.921,50.7h-3.672c-0.682,0-1.168-0.256-1.465-0.768l-2.904-5.076
			c-0.135-0.216-0.287-0.374-0.455-0.474c-0.168-0.1-0.408-0.15-0.721-0.15h-1.031V50.7h-4.057V33.216h5.688
			c1.266,0,2.342,0.13,3.234,0.39c0.893,0.26,1.621,0.623,2.184,1.086c0.564,0.464,0.977,1.012,1.23,1.644
			c0.256,0.632,0.385,1.32,0.385,2.064c0,0.568-0.076,1.104-0.229,1.608c-0.152,0.504-0.377,0.97-0.672,1.398
			c-0.297,0.428-0.662,0.81-1.1,1.146c-0.436,0.336-0.938,0.612-1.506,0.828c0.264,0.136,0.512,0.306,0.744,0.51
			c0.23,0.204,0.439,0.446,0.625,0.726L417.921,50.7z M409.304,41.436c0.553,0,1.023-0.07,1.41-0.21
			c0.389-0.14,0.707-0.334,0.955-0.582s0.428-0.538,0.539-0.87s0.168-0.69,0.168-1.074c0-0.768-0.25-1.368-0.75-1.8
			s-1.273-0.648-2.322-0.648h-1.631v5.184H409.304z"/>
		<path fill="#2D2D2D" d="M431.792,34.68c0,0.208-0.035,0.412-0.102,0.612c-0.068,0.2-0.162,0.388-0.283,0.564l-8.207,11.724h8.328
			v3.12h-13.488v-1.56c0-0.184,0.031-0.366,0.096-0.546c0.064-0.18,0.152-0.346,0.264-0.498l8.232-11.76h-7.92v-3.12h13.08V34.68
			L431.792,34.68z"/>
		<path fill="#2D2D2D" d="M438.093,36.336v4.08h5.494v3h-5.494v4.164h7.176v3.12h-11.256V33.216h11.256v3.12H438.093z"/>
		<path fill="#2D2D2D" d="M463.029,33.216V50.7h-2.111c-0.313,0-0.574-0.05-0.787-0.15c-0.211-0.1-0.422-0.274-0.629-0.522
			L451.255,39.6c0.033,0.312,0.055,0.614,0.066,0.906s0.018,0.566,0.018,0.822V50.7h-3.574V33.216h2.137
			c0.176,0,0.322,0.008,0.443,0.024c0.119,0.016,0.229,0.046,0.322,0.09c0.098,0.044,0.189,0.106,0.277,0.186
			s0.188,0.188,0.299,0.324l8.316,10.5c-0.041-0.336-0.068-0.662-0.084-0.978c-0.018-0.316-0.023-0.614-0.023-0.894v-9.252H463.029z
			"/>
		<path fill="#2D2D2D" d="M483.572,41.952c0,1.264-0.219,2.44-0.652,3.528c-0.438,1.088-1.051,2.034-1.842,2.838
			c-0.793,0.804-1.746,1.434-2.863,1.89c-1.115,0.456-2.354,0.684-3.713,0.684c-1.361,0-2.602-0.228-3.721-0.684
			c-1.121-0.456-2.078-1.086-2.875-1.89c-0.795-0.804-1.41-1.75-1.848-2.838c-0.436-1.088-0.654-2.264-0.654-3.528
			c0-1.264,0.219-2.44,0.654-3.528c0.438-1.088,1.053-2.032,1.848-2.832c0.797-0.8,1.754-1.428,2.875-1.884
			c1.119-0.456,2.359-0.684,3.721-0.684c1.359,0,2.598,0.23,3.713,0.69c1.117,0.46,2.07,1.09,2.863,1.89
			c0.791,0.8,1.404,1.744,1.842,2.832C483.353,39.524,483.572,40.696,483.572,41.952z M479.419,41.952
			c0-0.864-0.111-1.642-0.336-2.334c-0.225-0.692-0.545-1.278-0.965-1.758c-0.422-0.48-0.936-0.848-1.543-1.104
			c-0.607-0.256-1.301-0.384-2.076-0.384c-0.783,0-1.482,0.128-2.094,0.384c-0.611,0.256-1.129,0.624-1.549,1.104
			s-0.742,1.066-0.967,1.758c-0.223,0.692-0.336,1.47-0.336,2.334c0,0.872,0.113,1.654,0.336,2.346
			c0.225,0.692,0.547,1.278,0.967,1.758s0.938,0.846,1.549,1.098c0.611,0.252,1.311,0.378,2.094,0.378
			c0.775,0,1.469-0.126,2.076-0.378c0.607-0.252,1.121-0.618,1.543-1.098c0.42-0.48,0.74-1.066,0.965-1.758
			C479.308,43.606,479.419,42.824,479.419,41.952z"/>
		<path fill="#2D2D2D" d="M495.621,36.768c-0.119,0.192-0.244,0.336-0.377,0.432c-0.133,0.096-0.303,0.144-0.51,0.144
			c-0.186,0-0.383-0.058-0.596-0.174c-0.211-0.116-0.451-0.246-0.719-0.39c-0.27-0.144-0.574-0.274-0.918-0.39
			c-0.346-0.116-0.736-0.174-1.178-0.174c-0.76,0-1.324,0.162-1.697,0.486c-0.371,0.324-0.559,0.762-0.559,1.314
			c0,0.352,0.111,0.644,0.336,0.876s0.52,0.432,0.883,0.6s0.779,0.322,1.248,0.462c0.469,0.14,0.945,0.296,1.434,0.468
			s0.967,0.374,1.436,0.606c0.467,0.232,0.883,0.528,1.248,0.888c0.363,0.36,0.656,0.798,0.881,1.314s0.336,1.138,0.336,1.866
			c0,0.808-0.141,1.564-0.42,2.268c-0.279,0.704-0.686,1.318-1.219,1.842c-0.531,0.524-1.188,0.936-1.967,1.236
			c-0.779,0.3-1.666,0.45-2.658,0.45c-0.545,0-1.098-0.056-1.662-0.168c-0.563-0.112-1.109-0.27-1.639-0.474
			c-0.527-0.204-1.023-0.446-1.486-0.726c-0.465-0.28-0.869-0.592-1.213-0.936l1.199-1.896c0.098-0.136,0.223-0.25,0.379-0.342
			c0.156-0.092,0.326-0.138,0.51-0.138c0.24,0,0.482,0.076,0.727,0.228s0.521,0.32,0.828,0.504c0.309,0.184,0.662,0.352,1.063,0.504
			c0.398,0.152,0.871,0.228,1.416,0.228c0.736,0,1.309-0.162,1.717-0.486c0.406-0.324,0.611-0.838,0.611-1.542
			c0-0.408-0.111-0.74-0.336-0.996c-0.225-0.256-0.52-0.468-0.883-0.636s-0.777-0.316-1.242-0.444
			c-0.463-0.128-0.939-0.271-1.428-0.426s-0.965-0.348-1.428-0.576c-0.465-0.228-0.879-0.528-1.242-0.9s-0.658-0.836-0.883-1.392
			c-0.225-0.556-0.336-1.242-0.336-2.058c0-0.656,0.133-1.296,0.396-1.92s0.65-1.18,1.164-1.668c0.512-0.488,1.139-0.878,1.883-1.17
			s1.598-0.438,2.557-0.438c0.535,0,1.059,0.042,1.566,0.126s0.99,0.208,1.445,0.372s0.883,0.36,1.277,0.588
			c0.396,0.228,0.75,0.486,1.063,0.774L495.621,36.768z"/>
		<path fill="#2D2D2D" d="M503.335,50.7h-4.08V33.216h4.08V50.7z"/>
		<path fill="#2D2D2D" d="M518.492,46.176c0.096,0,0.191,0.018,0.289,0.054c0.096,0.036,0.188,0.098,0.275,0.186l1.607,1.692
			c-0.705,0.92-1.586,1.614-2.646,2.082c-1.061,0.468-2.314,0.702-3.764,0.702c-1.326,0-2.518-0.226-3.568-0.678
			c-1.053-0.452-1.943-1.076-2.676-1.872c-0.732-0.796-1.295-1.74-1.688-2.832c-0.393-1.092-0.588-2.278-0.588-3.558
			c0-1.304,0.213-2.502,0.637-3.594c0.424-1.092,1.02-2.034,1.787-2.826c0.77-0.792,1.688-1.408,2.76-1.848s2.252-0.66,3.541-0.66
			c0.656,0,1.273,0.058,1.854,0.174c0.58,0.116,1.121,0.276,1.625,0.48c0.506,0.204,0.969,0.45,1.393,0.738s0.801,0.6,1.129,0.936
			l-1.367,1.836c-0.09,0.112-0.191,0.214-0.313,0.306c-0.121,0.092-0.289,0.138-0.504,0.138c-0.146,0-0.281-0.032-0.408-0.096
			c-0.129-0.064-0.266-0.142-0.408-0.234c-0.145-0.092-0.303-0.192-0.475-0.3s-0.375-0.208-0.611-0.3
			c-0.236-0.092-0.512-0.17-0.828-0.234c-0.316-0.064-0.686-0.096-1.109-0.096c-0.672,0-1.287,0.124-1.842,0.372
			c-0.557,0.248-1.037,0.61-1.439,1.086c-0.404,0.476-0.717,1.06-0.938,1.752s-0.33,1.482-0.33,2.37
			c0,0.896,0.121,1.692,0.365,2.388c0.244,0.696,0.576,1.282,0.996,1.758s0.91,0.838,1.471,1.086s1.16,0.372,1.801,0.372
			c0.367,0,0.703-0.018,1.008-0.054s0.588-0.096,0.852-0.18c0.266-0.084,0.514-0.196,0.744-0.336
			c0.232-0.14,0.469-0.318,0.709-0.534c0.096-0.08,0.199-0.146,0.313-0.198C518.255,46.202,518.373,46.176,518.492,46.176z
			 M520.244,28.296l-3.875,3.42c-0.096,0.088-0.189,0.156-0.275,0.204c-0.09,0.048-0.182,0.084-0.275,0.108
			c-0.096,0.024-0.199,0.04-0.307,0.048c-0.107,0.008-0.23,0.012-0.367,0.012h-2.711l2.268-3.24c0.096-0.128,0.189-0.23,0.283-0.306
			c0.092-0.076,0.191-0.132,0.299-0.168s0.232-0.058,0.373-0.066c0.139-0.008,0.301-0.012,0.484-0.012H520.244z"/>
	</g>
	<g>
		<path fill="#A7A9AC" d="M35.144,33.216c1.232,0,2.29,0.146,3.174,0.438c0.884,0.292,1.612,0.694,2.184,1.206
			c0.572,0.512,0.994,1.116,1.266,1.812c0.272,0.696,0.408,1.448,0.408,2.256c0,0.872-0.14,1.672-0.42,2.4
			c-0.28,0.728-0.708,1.352-1.284,1.872c-0.576,0.52-1.306,0.926-2.19,1.218c-0.884,0.292-1.93,0.438-3.138,0.438h-2.112V50.7
			h-4.056V33.216H35.144z M35.144,41.796c1.056,0,1.816-0.252,2.28-0.756c0.464-0.504,0.696-1.208,0.696-2.112
			c0-0.4-0.06-0.764-0.18-1.092s-0.302-0.61-0.546-0.846c-0.244-0.236-0.552-0.418-0.924-0.546
			c-0.372-0.128-0.814-0.192-1.326-0.192h-2.112v5.544H35.144z"/>
		<path fill="#A7A9AC" d="M58.543,50.7h-3.672c-0.68,0-1.168-0.256-1.464-0.768l-2.904-5.076c-0.136-0.216-0.288-0.374-0.456-0.474
			c-0.168-0.1-0.408-0.15-0.72-0.15h-1.032V50.7h-4.056V33.216h5.688c1.264,0,2.342,0.13,3.234,0.39
			c0.892,0.26,1.62,0.623,2.184,1.086c0.564,0.463,0.974,1.012,1.23,1.644c0.256,0.632,0.384,1.32,0.384,2.064
			c0,0.568-0.076,1.104-0.228,1.608c-0.152,0.504-0.376,0.97-0.672,1.398c-0.296,0.428-0.662,0.81-1.098,1.146
			c-0.436,0.336-0.938,0.612-1.506,0.828c0.264,0.136,0.512,0.306,0.744,0.51c0.232,0.204,0.44,0.446,0.624,0.726L58.543,50.7z
			 M49.927,41.436c0.552,0,1.022-0.07,1.41-0.21c0.388-0.14,0.706-0.334,0.954-0.582s0.428-0.538,0.54-0.87
			C52.943,39.442,53,39.083,53,38.7c0-0.768-0.25-1.368-0.75-1.8s-1.274-0.648-2.322-0.648h-1.632v5.184H49.927z"/>
		<path fill="#A7A9AC" d="M72.415,34.68c0,0.208-0.034,0.412-0.102,0.612s-0.162,0.388-0.282,0.564L63.823,47.58h8.328v3.12H58.663
			v-1.56c0-0.184,0.032-0.366,0.096-0.546c0.064-0.18,0.152-0.346,0.264-0.498l8.232-11.76h-7.92v-3.12h13.08V34.68z"/>
		<path fill="#A7A9AC" d="M78.715,36.336v4.08h5.496v3h-5.496v4.164h7.176v3.12H74.635V33.216h11.256v3.12H78.715z"/>
		<path fill="#A7A9AC" d="M96.427,41.64h6.216v7.38c-0.896,0.656-1.85,1.132-2.862,1.428c-1.012,0.296-2.07,0.444-3.174,0.444
			c-1.44,0-2.75-0.226-3.93-0.678c-1.18-0.452-2.19-1.076-3.03-1.872c-0.84-0.796-1.488-1.74-1.944-2.832
			c-0.456-1.092-0.684-2.278-0.684-3.558c0-1.304,0.216-2.502,0.648-3.594c0.432-1.092,1.05-2.034,1.854-2.826
			s1.776-1.408,2.916-1.848s2.414-0.66,3.822-0.66c0.728,0,1.412,0.06,2.052,0.18s1.23,0.284,1.77,0.492s1.034,0.456,1.482,0.744
			c0.448,0.288,0.848,0.6,1.2,0.936l-1.176,1.788c-0.184,0.28-0.422,0.452-0.714,0.516s-0.606-0.008-0.942-0.216
			c-0.32-0.192-0.623-0.358-0.906-0.498c-0.284-0.14-0.574-0.254-0.87-0.342c-0.296-0.088-0.608-0.152-0.936-0.192
			c-0.328-0.04-0.696-0.06-1.104-0.06c-0.76,0-1.444,0.134-2.052,0.402s-1.126,0.646-1.554,1.134
			c-0.428,0.488-0.758,1.074-0.99,1.758s-0.348,1.446-0.348,2.286c0,0.928,0.128,1.752,0.384,2.472
			c0.256,0.72,0.618,1.328,1.086,1.824c0.468,0.496,1.028,0.875,1.68,1.134c0.652,0.259,1.374,0.39,2.166,0.39
			c0.488,0,0.93-0.048,1.326-0.144c0.396-0.096,0.782-0.224,1.158-0.384v-2.652h-1.728c-0.256,0-0.456-0.068-0.6-0.204
			c-0.144-0.136-0.216-0.308-0.216-0.516V41.64z"/>
		<path fill="#A7A9AC" d="M115.903,47.459v3.24h-10.536V33.216h4.056V47.46L115.903,47.459L115.903,47.459z"/>
		<path fill="#A7A9AC" d="M133.915,54.264c-0.28,0.168-0.628,0.31-1.044,0.426c-0.416,0.116-0.86,0.174-1.332,0.174
			c-0.856,0-1.506-0.168-1.95-0.504c-0.444-0.336-0.666-0.764-0.666-1.284c0-0.408,0.136-0.816,0.408-1.224
			c0.271-0.408,0.708-0.792,1.308-1.152h-0.156c-0.352,0-0.636-0.082-0.852-0.246c-0.216-0.164-0.38-0.374-0.492-0.63l-1.032-3.048
			h-6.648l-1.032,3.048c-0.088,0.224-0.246,0.426-0.474,0.606c-0.228,0.18-0.51,0.27-0.846,0.27h-3.168l6.768-17.484h4.152
			l6.768,17.484h-0.816c-0.312,0.168-0.578,0.378-0.798,0.63c-0.22,0.252-0.33,0.53-0.33,0.834c0,0.192,0.054,0.346,0.162,0.462
			c0.108,0.116,0.27,0.174,0.486,0.174c0.12,0,0.216-0.004,0.288-0.012c0.072-0.008,0.132-0.018,0.18-0.03
			c0.048-0.012,0.088-0.024,0.12-0.036c0.032-0.012,0.068-0.018,0.108-0.018c0.168,0,0.28,0.076,0.336,0.228L133.915,54.264z
			 M127.183,44.016l-1.62-4.788c-0.12-0.304-0.248-0.662-0.384-1.074c-0.136-0.412-0.272-0.858-0.408-1.338
			c-0.12,0.488-0.248,0.94-0.384,1.356c-0.136,0.416-0.264,0.776-0.384,1.08l-1.608,4.764H127.183z"/>
		<path fill="#A7A9AC" d="M150.858,41.952c0,1.264-0.218,2.43-0.654,3.498c-0.436,1.068-1.05,1.992-1.842,2.772
			c-0.792,0.78-1.746,1.388-2.862,1.824s-2.354,0.654-3.714,0.654h-6.792V33.216h6.792c1.36,0,2.598,0.22,3.714,0.66
			s2.07,1.048,2.862,1.824c0.792,0.776,1.406,1.698,1.842,2.766C150.64,39.534,150.858,40.696,150.858,41.952z M146.706,41.952
			c0-0.864-0.112-1.644-0.336-2.34c-0.224-0.696-0.546-1.286-0.966-1.77c-0.42-0.484-0.934-0.856-1.542-1.116
			c-0.608-0.26-1.3-0.39-2.076-0.39h-2.712V47.58h2.712c0.776,0,1.468-0.13,2.076-0.39c0.608-0.26,1.122-0.632,1.542-1.116
			c0.42-0.484,0.742-1.074,0.966-1.77C146.594,43.608,146.706,42.824,146.706,41.952z"/>
		<path fill="#A7A9AC" d="M168.342,50.7h-3.144c-0.352,0-0.636-0.082-0.852-0.246c-0.216-0.164-0.38-0.374-0.492-0.63l-1.032-3.048
			h-6.648l-1.032,3.048c-0.088,0.224-0.246,0.426-0.474,0.606c-0.228,0.18-0.51,0.27-0.846,0.27h-3.168l6.768-17.484h4.152
			L168.342,50.7z M161.898,44.016l-1.62-4.788c-0.12-0.304-0.248-0.662-0.384-1.074c-0.136-0.412-0.272-0.858-0.408-1.338
			c-0.12,0.488-0.248,0.94-0.384,1.356c-0.136,0.416-0.264,0.776-0.384,1.08l-1.608,4.764H161.898z"/>
		<path fill="#A7A9AC" d="M180.918,46.176c0.096,0,0.192,0.018,0.288,0.054c0.096,0.036,0.188,0.098,0.276,0.186l1.608,1.692
			c-0.704,0.92-1.586,1.614-2.646,2.082c-1.061,0.468-2.314,0.702-3.762,0.702c-1.328,0-2.518-0.226-3.57-0.678
			c-1.052-0.452-1.944-1.076-2.676-1.872c-0.732-0.796-1.294-1.74-1.686-2.832c-0.392-1.092-0.588-2.278-0.588-3.558
			c0-1.304,0.212-2.502,0.636-3.594c0.424-1.092,1.02-2.034,1.788-2.826s1.688-1.408,2.76-1.848c1.072-0.44,2.252-0.66,3.54-0.66
			c0.656,0,1.274,0.058,1.854,0.174c0.58,0.116,1.122,0.276,1.626,0.48c0.504,0.204,0.968,0.45,1.392,0.738
			c0.424,0.288,0.8,0.6,1.128,0.936l-1.368,1.836c-0.088,0.112-0.192,0.214-0.312,0.306c-0.12,0.092-0.288,0.138-0.504,0.138
			c-0.144,0-0.28-0.032-0.408-0.096s-0.264-0.142-0.408-0.234c-0.144-0.092-0.302-0.192-0.474-0.3s-0.376-0.208-0.612-0.3
			c-0.236-0.092-0.512-0.17-0.828-0.234c-0.316-0.064-0.686-0.096-1.11-0.096c-0.672,0-1.286,0.124-1.842,0.372
			s-1.036,0.61-1.44,1.086c-0.404,0.476-0.716,1.06-0.936,1.752c-0.22,0.692-0.33,1.482-0.33,2.37c0,0.896,0.122,1.692,0.366,2.388
			c0.244,0.696,0.576,1.282,0.996,1.758c0.42,0.476,0.91,0.838,1.47,1.086s1.16,0.372,1.8,0.372c0.368,0,0.704-0.018,1.008-0.054
			c0.304-0.036,0.588-0.096,0.852-0.18c0.264-0.084,0.512-0.196,0.744-0.336c0.232-0.14,0.468-0.318,0.708-0.534
			c0.096-0.08,0.2-0.146,0.312-0.198C180.682,46.202,180.798,46.176,180.918,46.176z M182.67,28.296l-3.876,3.42
			c-0.096,0.088-0.188,0.156-0.276,0.204s-0.18,0.084-0.276,0.108c-0.096,0.024-0.198,0.04-0.306,0.048
			c-0.108,0.008-0.23,0.012-0.366,0.012h-2.712l2.268-3.24c0.096-0.128,0.19-0.23,0.282-0.306c0.092-0.076,0.192-0.132,0.3-0.168
			s0.232-0.058,0.372-0.066c0.14-0.008,0.302-0.012,0.486-0.012H182.67z"/>
	</g>
</g>
</svg>
